<?xml version="1.0" standalone="no"?>
<!DOCTYPE svg PUBLIC "-//W3C//DTD SVG 20010904//EN"
 "http://www.w3.org/TR/2001/REC-SVG-20010904/DTD/svg10.dtd">
<svg version="1.0" xmlns="http://www.w3.org/2000/svg"
 width="1000.000000pt" height="1000.000000pt" viewBox="0 0 1000.000000 1000.000000"
 preserveAspectRatio="xMidYMid meet">
<metadata>
Created by potrace 1.16, written by Peter Selinger 2001-2019
</metadata>
<g transform="translate(0.000000,1000.000000) scale(0.100000,-0.100000)"
fill="#000000" stroke="none">
<path d="M2822 9872 l1 -77 7 55 c4 30 8 44 9 30 5 -72 84 -307 141 -420 73
-144 195 -342 300 -485 21 -28 52 -77 70 -110 l33 -60 -35 40 c-79 88 -138
149 -138 141 0 -5 25 -38 56 -73 31 -35 55 -66 53 -68 -8 -8 -156 96 -187 132
-20 22 -29 29 -22 15 16 -32 91 -106 163 -157 68 -50 69 -54 6 -25 -61 27 -81
25 -44 -5 l30 -25 -25 3 c-15 1 -24 -3 -23 -10 6 -29 -27 2 -38 35 -17 55 -65
147 -110 212 -21 32 -39 61 -39 66 0 21 -106 164 -121 164 -9 0 -20 7 -23 16
-6 15 -4 15 11 3 10 -7 3 3 -16 24 -19 20 -37 35 -39 32 -3 -3 3 -14 13 -25
22 -25 2 -27 -23 -2 -45 43 -95 82 -104 82 -5 0 -6 5 -3 10 3 6 -4 10 -15 10
-13 0 -24 8 -27 19 -6 22 -37 33 -51 19 -7 -7 -20 -2 -39 16 -15 14 -32 26
-38 26 -28 0 -96 47 -147 103 l-58 62 0 -36 c0 -42 18 -98 37 -118 8 -7 12
-20 9 -28 -3 -8 -7 -20 -7 -26 -1 -7 -4 2 -8 18 l-7 30 -5 -37 c-3 -20 -1 -34
3 -32 4 3 8 1 8 -5 0 -5 -5 -11 -10 -13 -12 -4 -43 -192 -37 -218 2 -8 7 13
12 47 10 84 31 102 41 36 11 -76 23 -96 23 -42 1 43 3 47 27 47 17 0 28 -8 34
-23 28 -73 170 -339 193 -362 12 -11 -21 60 -61 132 -45 80 -106 215 -97 215
2 0 27 -46 55 -102 81 -161 108 -212 122 -230 7 -9 31 -47 53 -83 22 -37 58
-89 80 -117 67 -84 94 -123 95 -132 0 -4 -21 18 -47 49 -47 57 -110 127 -85
95 6 -9 12 -21 12 -27 0 -6 17 -30 38 -54 20 -24 44 -53 52 -64 14 -19 14 -20
-6 -2 -11 9 -23 15 -26 12 -7 -7 -92 85 -154 168 -54 70 -122 186 -173 294
-19 40 -36 71 -39 69 -3 -4 24 -70 53 -126 47 -95 68 -131 99 -175 20 -27 36
-54 36 -58 0 -10 70 -103 111 -147 31 -33 32 -35 11 -38 -12 -2 -22 -7 -22
-12 0 -17 105 -102 169 -137 36 -20 78 -45 93 -55 14 -10 33 -18 42 -18 14 0
14 5 -5 41 -11 23 -40 72 -65 110 -24 38 -44 71 -44 74 0 2 -42 62 -93 132
-102 140 -187 267 -187 277 0 4 6 4 13 0 7 -4 9 -3 4 2 -5 5 -14 9 -20 9 -12
0 -188 342 -236 460 -18 44 -43 99 -56 123 -13 23 -20 42 -15 42 5 0 16 -13
24 -29 16 -30 72 -93 184 -208 34 -35 62 -68 62 -73 0 -5 33 -43 73 -85 39
-41 72 -79 72 -83 0 -4 10 -19 23 -32 13 -14 32 -41 41 -61 10 -20 23 -43 30
-50 6 -8 24 -34 40 -59 15 -25 42 -67 59 -94 18 -27 32 -60 32 -72 0 -13 5
-26 10 -29 6 -3 10 -15 10 -27 0 -17 -2 -18 -15 -8 -23 19 -19 0 25 -111 23
-56 39 -103 36 -106 -2 -2 -12 17 -22 44 -19 52 -141 270 -156 279 -5 4 -5 -2
1 -12 28 -49 58 -124 51 -124 -5 0 -12 5 -15 10 -4 6 -11 8 -16 5 -5 -4 -14 5
-21 19 -9 22 -28 36 -28 21 0 -2 35 -57 78 -122 44 -65 96 -149 117 -187 39
-70 39 -70 47 -40 8 27 5 114 -7 195 -5 33 -5 33 5 5 16 -50 22 -159 11 -206
-6 -28 -6 -49 0 -54 6 -6 9 -5 9 2 0 7 9 23 21 35 54 57 149 189 179 249 19
37 35 66 37 64 2 -1 -8 -30 -22 -64 -14 -34 -25 -66 -25 -72 0 -6 -30 -45 -66
-88 -36 -42 -80 -98 -97 -124 -30 -48 -64 -66 -52 -29 4 15 -4 23 -42 42 -82
39 -225 129 -296 186 -37 30 -95 89 -129 131 -68 86 -70 85 -15 -9 21 -35 52
-72 68 -81 18 -11 29 -25 29 -39 0 -12 19 -40 48 -66 40 -39 42 -42 12 -22
-19 12 -55 39 -80 58 l-45 36 33 -38 c40 -47 43 -76 6 -69 -23 4 -25 3 -16
-15 6 -11 18 -25 26 -33 23 -18 21 -44 -3 -37 -16 4 -17 1 -10 -32 12 -52 11
-57 -7 -35 -14 17 -15 17 -10 1 3 -10 6 -21 6 -23 0 -2 9 -4 20 -4 11 0 20 -7
20 -15 0 -21 1 -25 17 -65 12 -30 12 -32 0 -17 -8 9 -19 17 -26 17 -6 0 -11 4
-11 8 0 10 -76 52 -93 52 -7 0 -32 27 -56 60 -69 95 -65 79 8 -32 37 -57 84
-131 106 -165 35 -58 46 -67 82 -66 7 1 -1 -19 -19 -43 -30 -42 -65 -65 -122
-78 -26 -6 -28 -5 -17 8 11 14 11 16 -4 16 -11 0 -15 5 -12 14 4 10 -2 18 -15
22 -22 7 -22 7 4 29 l26 22 -33 42 c-19 23 -36 42 -39 42 -9 -1 -42 34 -49 52
-3 9 -13 14 -20 11 -8 -3 -17 2 -20 10 -4 9 -13 16 -22 16 -8 0 -14 3 -13 8 4
9 -34 47 -56 55 -9 4 -14 11 -11 17 3 6 -3 23 -14 39 -11 15 -18 31 -14 34 3
4 -2 9 -11 13 -9 3 -16 10 -16 16 0 5 5 6 11 2 8 -4 8 -1 1 13 -6 11 -50 53
-98 94 -48 41 -103 89 -123 108 l-36 33 55 -37 c112 -78 185 -138 294 -243 82
-80 97 -85 35 -10 -20 23 -38 48 -40 53 -4 11 -25 39 -53 68 -19 20 -19 20 2
15 12 -4 20 -2 16 3 -3 5 -12 9 -20 9 -8 0 -14 9 -14 19 0 19 -25 35 -40 26
-5 -3 -12 4 -15 16 -4 12 -12 18 -21 15 -7 -3 -16 0 -20 6 -4 7 -3 8 4 4 7 -4
12 -5 12 -3 0 2 -26 21 -57 42 -79 53 -193 137 -193 142 0 13 195 -104 295
-176 22 -16 42 -27 45 -24 3 2 -3 9 -13 15 -10 5 -33 22 -50 37 -18 16 -64 49
-104 74 -39 25 -75 52 -80 59 -4 7 -25 28 -46 46 -44 37 -40 39 38 12 32 -11
60 -18 62 -17 5 6 -64 33 -137 55 -47 14 -57 20 -37 21 16 1 38 -4 50 -10 55
-30 177 -43 177 -20 0 11 -111 39 -180 45 -97 9 -166 31 -226 70 -62 41 -70
43 -70 16 0 -10 2 -17 4 -15 10 10 42 -45 36 -62 -4 -13 -3 -15 4 -4 7 10 16
4 38 -25 108 -148 152 -202 254 -309 117 -123 204 -221 396 -445 58 -69 110
-126 115 -128 9 -4 -17 -63 -32 -72 -5 -3 14 -34 42 -68 55 -69 57 -79 3 -29
-48 44 -116 80 -125 66 -5 -8 -8 -8 -13 0 -4 6 -11 11 -17 11 -9 0 80 -85 141
-133 l35 -28 -60 31 c-33 16 -65 34 -72 40 -7 5 -15 10 -19 10 -4 0 -15 6 -24
13 -9 6 -5 2 8 -10 30 -30 26 -29 -44 6 -33 16 -63 27 -68 23 -28 -17 156
-128 259 -157 28 -7 43 -14 34 -14 -9 -1 -36 5 -61 12 -24 8 -55 13 -69 12
-13 -1 -44 8 -69 21 -25 13 -56 24 -70 26 -14 2 -31 7 -38 12 -16 10 -37 -7
-28 -22 11 -19 74 -42 185 -68 97 -22 125 -25 197 -19 59 5 84 11 84 20 0 8 7
11 19 8 18 -5 14 -16 -41 -126 -88 -176 -156 -372 -135 -393 8 -8 70 -8 98 1
24 7 24 7 4 -9 -20 -17 -20 -17 5 -11 19 5 21 4 10 -4 -12 -8 -9 -12 14 -20
15 -6 32 -9 37 -6 10 7 182 -39 253 -67 116 -45 243 -115 369 -201 75 -51 107
-70 107 -63 0 16 -315 206 -416 251 -109 49 -251 95 -291 95 -11 0 -20 6 -20
13 0 11 22 13 98 11 54 -1 103 -5 109 -9 6 -4 48 -15 92 -26 188 -45 443 -200
603 -366 28 -28 37 -44 28 -47 -18 -7 -16 -33 2 -40 8 -3 14 -9 13 -13 -1 -4
7 -28 19 -53 11 -25 24 -60 28 -78 4 -18 11 -30 16 -27 5 4 6 -1 3 -10 -4 -9
1 -22 12 -31 18 -15 18 -15 -1 -6 -11 6 -32 21 -46 34 -14 13 -30 23 -36 21
-11 -4 -185 107 -363 231 -330 231 -501 334 -623 376 -48 16 -58 17 -53 5 7
-19 2 -19 -41 1 -20 10 -38 13 -43 8 -23 -24 -45 -212 -41 -359 5 -238 4 -306
-4 -367 -4 -32 -5 -58 -2 -58 3 0 69 65 147 144 l142 145 69 -60 c71 -61 100
-78 60 -35 -13 14 -20 29 -17 35 4 5 1 13 -5 17 -8 5 -9 3 -4 -6 5 -8 4 -11
-3 -6 -6 4 -9 13 -5 21 3 8 0 15 -6 15 -6 0 -11 5 -11 11 0 5 6 7 13 4 6 -4
-1 5 -18 19 -16 15 -41 36 -54 49 -32 30 -102 139 -140 217 -36 76 -29 67 41
-52 57 -97 125 -185 141 -180 5 2 21 -7 35 -20 31 -28 22 -11 -18 34 -16 18
-30 38 -31 43 -1 6 -10 16 -21 23 -15 11 -16 17 -8 27 13 16 52 -5 145 -78 29
-23 77 -57 106 -75 30 -18 61 -37 69 -42 33 -21 116 -67 133 -73 30 -11 9 11
-31 34 -34 19 -31 19 16 3 13 -5 13 -3 -3 8 -27 19 -58 31 -50 18 10 -17 -2
-11 -60 25 -33 21 -53 40 -49 47 4 7 2 8 -5 4 -12 -8 -81 32 -81 47 0 5 6 5
13 2 6 -4 -12 16 -42 44 -30 28 -57 49 -59 46 -3 -3 -3 -6 -1 -8 22 -15 87
-77 81 -77 -5 0 -53 43 -108 96 -54 53 -90 89 -78 80 11 -9 23 -13 27 -10 3 3
11 3 17 -1 9 -6 9 -10 -1 -16 -10 -6 -7 -9 11 -9 19 0 21 3 12 12 -7 7 -12 18
-12 26 0 12 4 12 23 -2 64 -46 187 -125 217 -140 40 -19 50 -27 -87 71 -114
81 -394 305 -313 250 14 -10 36 -22 50 -28 83 -36 210 -103 210 -109 0 -5 20
-18 44 -30 23 -12 70 -42 102 -66 32 -25 100 -70 149 -101 50 -32 92 -60 95
-63 10 -11 79 -60 84 -60 3 0 30 -16 60 -35 30 -19 58 -35 61 -35 3 0 26 -15
50 -32 23 -18 51 -38 61 -44 33 -20 -153 -5 -224 18 -35 11 -65 18 -68 15 -2
-2 25 -14 61 -26 78 -27 181 -73 144 -65 -18 4 -28 1 -32 -10 -5 -11 -18 -14
-64 -10 -72 6 -118 12 -118 14 0 1 -11 4 -25 5 -14 2 -47 13 -74 24 -27 12
-51 20 -53 17 -4 -4 60 -35 117 -56 19 -7 39 -17 44 -22 6 -4 19 -8 30 -9 21
0 21 0 1 -8 -11 -5 -28 -5 -37 0 -9 5 -32 9 -50 9 -19 0 -39 5 -45 11 -6 6
-21 9 -34 7 -15 -2 -33 6 -48 20 -16 16 -26 20 -31 13 -8 -14 -76 12 -101 38
-22 22 -53 46 -83 66 -23 15 -24 15 -22 -2 2 -10 36 -38 82 -65 81 -49 140
-75 129 -58 -4 6 -1 10 4 10 6 0 11 -4 11 -10 0 -15 43 -34 73 -32 16 2 26 -2
23 -7 -3 -5 31 -23 75 -40 107 -41 209 -49 345 -27 96 15 181 11 215 -9 5 -3
32 -10 61 -15 29 -5 64 -12 78 -16 23 -6 23 -4 -12 32 -71 76 -130 175 -154
259 -45 163 -69 219 -136 318 -21 32 -44 55 -49 51 -6 -3 -30 11 -52 33 -23
21 -55 50 -72 63 -31 26 -28 21 52 -67 6 -7 16 -13 22 -13 6 0 11 -9 11 -20 0
-11 -4 -20 -10 -20 -5 0 -10 4 -10 8 0 5 -12 14 -27 21 -21 9 -14 0 25 -36 28
-26 52 -51 52 -55 0 -3 16 -30 35 -59 20 -29 34 -58 31 -65 -3 -7 2 -18 10
-24 8 -7 14 -17 14 -23 0 -6 -13 4 -29 23 -16 19 -27 38 -24 43 2 4 0 6 -6 5
-5 -2 -29 15 -53 38 -92 88 -229 190 -347 257 -209 121 -355 169 -506 169 -67
1 -79 2 -48 7 42 7 69 21 42 21 -10 1 -9 3 3 11 11 6 15 16 11 26 -4 9 -2 14
3 11 5 -4 10 22 11 60 l2 67 -18 -37 c-25 -56 -71 -100 -88 -87 -7 6 -13 8
-13 3 0 -4 -10 2 -21 15 -18 20 -20 26 -10 49 10 20 9 27 -1 33 -49 28 -51 33
-33 68 26 51 64 89 111 112 24 11 55 35 69 52 35 45 31 15 -5 -38 -16 -24 -30
-50 -30 -57 0 -7 -7 -24 -16 -36 -18 -25 -17 -26 24 -11 55 19 85 108 57 172
-4 9 -3 17 3 17 13 0 21 -50 21 -130 0 -36 7 -82 16 -103 8 -20 15 -51 15 -70
l0 -33 130 -16 c121 -15 137 -19 236 -67 155 -76 247 -138 354 -238 51 -47 61
-53 125 -63 169 -27 234 -52 305 -117 45 -40 49 -33 21 35 -25 61 -38 141 -46
277 -7 109 -29 236 -46 265 -6 10 -8 -2 -5 -35 l4 -50 -14 33 c-9 21 -19 30
-26 26 -9 -6 -9 -9 0 -12 7 -2 10 -7 7 -11 -2 -5 6 -37 19 -72 13 -35 26 -82
30 -104 l6 -40 -20 38 c-11 20 -25 37 -30 37 -5 0 -7 7 -3 16 4 12 2 15 -8 12
-8 -3 -21 12 -35 40 -13 28 -24 39 -27 31 -4 -10 -6 -10 -6 -1 -1 15 -73 121
-98 143 -10 9 -29 31 -43 50 -14 18 -32 39 -40 48 -8 8 -13 15 -11 15 9 2 -51
96 -68 109 -9 6 -32 32 -51 57 -19 25 -44 52 -54 60 -19 14 -130 91 -172 117
-39 25 38 -7 105 -44 108 -59 212 -142 309 -246 28 -30 52 -53 52 -50 0 6 -65
97 -94 130 -10 12 -24 19 -29 16 -6 -4 -8 0 -4 11 4 10 3 15 -3 11 -6 -3 -10
1 -10 9 0 8 -5 18 -12 22 -7 5 -9 2 -4 -7 4 -8 -2 -2 -14 14 -21 26 -110 94
-110 83 0 -3 -23 8 -50 24 -28 17 -55 30 -60 30 -6 0 -10 6 -10 13 0 7 -21 19
-47 26 -44 12 -46 14 -25 24 12 5 22 14 22 19 0 4 12 5 28 1 15 -3 36 -6 47
-5 11 0 26 -5 35 -12 8 -7 32 -19 53 -26 21 -6 41 -18 44 -26 3 -8 17 -21 32
-29 14 -7 44 -30 66 -50 22 -20 53 -46 70 -58 42 -30 60 -48 75 -76 12 -23 13
-23 94 58 77 77 84 81 126 81 25 0 94 9 153 19 83 15 137 18 230 14 l122 -5
-40 29 c-37 28 -61 63 -149 215 l-33 56 93 93 c51 51 92 94 90 96 -2 2 -48 -4
-102 -13 -124 -20 -185 -14 -319 30 -114 38 -202 83 -294 151 -47 35 -71 63
-114 137 -31 51 -58 109 -61 128 l-7 35 16 -27 c9 -16 18 -28 20 -28 3 0 0 12
-6 28 -7 18 19 -4 77 -66 85 -91 160 -150 256 -198 72 -37 71 -29 -3 14 -109
64 -161 103 -219 163 -64 66 -139 167 -99 133 13 -11 38 -28 54 -38 24 -14 23
-11 -10 18 -22 19 -37 35 -33 36 7 0 114 -62 328 -189 104 -63 205 -110 349
-166 113 -44 311 -108 316 -103 2 2 -65 27 -148 57 -287 100 -375 143 -782
383 -85 51 -118 53 -209 13 -42 -18 -73 -29 -70 -24 6 11 125 69 140 69 7 0
28 22 48 49 36 49 47 79 24 65 -10 -6 -10 -5 -1 7 10 13 8 22 -13 50 -51 68
-98 181 -125 299 -23 105 -29 119 -24 55 10 -114 70 -272 129 -342 39 -46 31
-52 -12 -10 -21 21 -41 35 -43 32 -13 -12 -62 59 -115 165 -66 132 -63 127
-72 115 -11 -16 -54 -15 -48 1 3 8 0 11 -9 8 -8 -3 -11 -13 -8 -22 3 -10 -3
-7 -15 8 -11 13 -18 28 -16 32 8 12 -36 69 -47 63 -15 -10 -50 30 -43 49 5 12
0 19 -15 23 -11 3 -19 9 -16 13 2 4 -7 17 -21 29 -42 36 -51 11 -15 -39 20
-28 31 -55 31 -77 0 -45 41 -113 98 -164 26 -22 55 -55 65 -72 10 -18 16 -24
13 -14 -7 23 4 22 45 -6 19 -12 50 -30 70 -40 28 -13 38 -24 41 -48 3 -17 0
-36 -6 -42 -6 -7 -11 -18 -12 -24 -1 -7 -2 -34 -4 -60 -3 -48 -3 -47 -10 17
-4 36 -15 81 -24 100 -13 28 -15 30 -11 9 3 -15 7 -57 10 -95 4 -61 3 -65 -7
-34 -6 19 -21 58 -33 85 -12 28 -28 65 -35 83 -26 66 -19 22 10 -68 17 -51 29
-100 27 -109 -2 -9 -8 -1 -14 21 -6 20 -23 49 -37 63 -14 14 -37 49 -51 78
-14 29 -35 63 -46 77 -11 14 5 -23 35 -81 59 -111 66 -132 41 -123 -8 4 -15
12 -15 19 0 7 -7 19 -16 26 -22 18 -109 148 -118 175 -4 12 -15 29 -26 39 -11
10 -20 24 -20 30 0 7 -7 18 -15 25 -19 16 -105 157 -99 162 2 3 -16 42 -41 88
-46 86 -54 106 -33 94 7 -4 8 -3 4 5 -4 6 -11 9 -16 6 -4 -3 -11 2 -14 11 -9
22 -8 26 5 19 6 -4 1 11 -10 34 -12 22 -20 44 -19 48 1 5 -3 17 -9 28 -6 11
-15 38 -19 60 l-7 40 27 -30 27 -30 -22 40 c-12 22 -32 50 -45 62 l-24 22 2
-77z m-182 -513 c0 -5 8 -13 18 -16 29 -11 143 -113 186 -166 104 -128 217
-306 216 -341 -1 -6 -12 9 -25 34 -13 25 -34 56 -45 70 -18 21 -17 17 4 -23
33 -60 32 -70 0 -32 -27 31 -23 18 7 -25 21 -30 99 -222 98 -242 0 -7 -9 10
-19 39 -31 88 -76 173 -154 293 -111 172 -210 310 -266 370 -28 30 -50 55 -50
57 0 1 7 0 15 -3 8 -4 15 -10 15 -15z m739 -944 c5 3 7 -3 5 -12 -2 -10 5 -29
16 -43 l20 -25 0 28 c0 42 9 39 99 -39 104 -88 193 -152 275 -196 122 -65 293
-148 306 -148 5 0 10 -4 10 -9 0 -13 -62 -4 -71 10 -4 6 -11 9 -17 5 -15 -9
-70 13 -76 31 -5 12 -9 13 -20 4 -11 -10 -16 -9 -23 4 -5 9 -18 18 -29 20 -10
2 -21 4 -24 5 -3 1 -14 3 -25 4 -14 1 -19 7 -17 21 2 13 0 16 -5 8 -13 -18
-90 24 -149 80 -26 25 -60 51 -76 58 -15 6 -25 15 -23 20 3 4 -12 20 -34 35
-22 14 -42 33 -45 42 -3 10 -4 1 -2 -18 2 -20 -2 -47 -10 -60 -7 -14 -13 -28
-14 -31 0 -3 22 -25 50 -48 47 -40 49 -41 32 -11 -9 16 -21 30 -25 30 -4 0
-16 8 -27 18 -16 15 -17 19 -4 36 13 18 16 17 76 -29 35 -27 75 -59 89 -72 14
-13 41 -32 60 -42 19 -10 59 -32 90 -50 61 -34 349 -150 377 -152 9 -1 4 -5
-13 -8 -16 -4 -38 -4 -47 1 -9 4 -25 5 -35 2 -15 -5 -15 -4 -3 5 8 5 12 13 8
16 -3 3 -14 -2 -24 -12 -16 -17 -16 -18 -1 -21 9 -2 17 -8 17 -13 0 -12 -17
-12 -25 1 -3 5 -13 7 -23 4 -16 -5 -16 -5 1 6 28 18 20 25 -25 24 -24 -1 -49
3 -58 8 -8 4 -49 23 -90 41 -105 45 -193 94 -231 128 -36 32 -41 34 -33 17 7
-20 130 -98 237 -151 54 -27 97 -51 94 -53 -2 -2 -32 7 -67 21 -35 14 -71 25
-79 26 -18 1 -39 13 -127 75 -83 59 -240 214 -216 214 4 0 1 4 -7 9 -8 5 -15
22 -16 38 -3 50 -5 54 -15 48 -7 -4 -6 -13 1 -27 7 -14 8 -18 0 -14 -6 4 -22
-16 -37 -46 -15 -29 -29 -47 -31 -40 -3 6 -11 12 -19 12 -8 0 -14 7 -14 16 0
14 -2 15 -17 3 -15 -13 -16 -11 -9 14 3 15 19 55 35 87 16 32 26 62 22 66 -3
4 -1 4 5 1 6 -4 20 1 30 9 10 9 13 13 6 9 -7 -4 -16 4 -22 20 -17 43 -11 52
10 17 11 -18 24 -31 29 -27z m117 7 c77 -61 388 -257 652 -411 39 -23 72 -44
72 -47 0 -2 -9 0 -21 6 -11 7 -32 14 -46 16 -41 8 -93 32 -93 43 0 6 -9 11
-21 11 -24 0 -51 24 -41 36 4 5 0 3 -10 -4 -11 -9 -18 -10 -23 -2 -3 5 -15 10
-26 10 -10 0 -19 4 -19 10 0 5 -6 7 -14 4 -7 -3 -16 1 -19 9 -3 8 -19 17 -37
20 -17 4 -29 11 -25 17 6 10 -2 14 -73 41 -19 7 -39 17 -45 23 -7 6 -32 24
-57 41 -86 57 -204 167 -205 191 -1 24 4 23 51 -14z m-576 -117 c12 -8 -62
-120 -90 -135 -24 -13 -41 -5 -34 14 3 7 -2 13 -11 13 -8 0 -15 -9 -15 -20 0
-20 0 -20 -21 -1 l-20 18 20 8 c23 8 27 23 11 33 -6 3 13 26 42 49 45 37 57
42 80 35 15 -4 32 -10 38 -14z m163 -113 c-14 -31 -42 -105 -63 -164 -31 -92
-41 -111 -71 -131 -29 -19 -103 -113 -145 -183 -7 -11 -15 -16 -19 -12 -14 13
80 151 174 255 30 34 36 62 14 70 -16 6 -15 8 6 13 23 5 47 55 65 130 8 36 45
92 56 85 5 -3 -3 -31 -17 -63z m967 -8 c52 -37 125 -93 161 -125 37 -33 70
-59 73 -59 4 0 -1 14 -11 30 -9 17 -24 30 -31 30 -8 0 -36 19 -62 43 -26 24
-80 65 -119 91 -39 27 -71 49 -71 50 0 1 76 -1 97 -3 26 -2 273 -245 273 -268
0 -11 -4 -10 -17 3 -13 13 -18 14 -22 3 -2 -7 1 -15 8 -17 6 -2 11 -8 11 -14
0 -5 -15 -1 -32 10 -18 11 -51 30 -73 42 -22 12 -44 27 -50 34 -11 13 -77 46
-93 46 -14 0 -43 41 -36 52 3 4 -2 8 -10 8 -9 0 -16 5 -16 10 0 6 -6 10 -12 8
-7 -1 -26 10 -42 24 -15 15 -41 33 -57 40 -38 17 -37 23 4 26 26 2 52 -11 127
-64z m-1116 -130 c9 -3 16 -10 16 -16 0 -5 -4 -7 -8 -4 -16 10 -59 -49 -65
-88 -10 -67 -86 -150 -118 -131 -5 4 -9 2 -9 -3 0 -5 -11 -9 -25 -9 -24 0 -24
1 -8 14 17 13 16 14 -4 8 -19 -5 -23 -2 -23 15 0 12 -4 18 -10 15 -5 -3 -10 3
-10 14 0 26 44 77 93 108 22 13 42 33 44 44 7 27 88 48 127 33z m480 -330 c32
-21 70 -46 83 -55 92 -62 231 -210 329 -354 42 -61 135 -239 149 -285 l7 -25
-21 27 c-11 14 -21 34 -21 43 0 9 -5 13 -10 10 -6 -3 -21 6 -34 22 -13 15 -34
39 -46 53 -12 14 -29 35 -37 47 -9 14 -20 20 -30 16 -13 -5 -15 -2 -11 15 3
12 0 29 -8 39 -9 12 -13 13 -14 5 0 -21 -18 -4 -37 36 -10 20 -66 85 -125 144
-60 60 -108 112 -108 116 0 5 -11 14 -24 22 -14 7 -22 18 -19 26 5 12 -7 19
-29 15 -4 0 -5 6 -2 14 4 8 1 15 -6 15 -7 0 -28 15 -46 34 -19 19 -42 37 -53
41 -10 3 -22 12 -24 20 -3 7 -21 21 -39 30 -18 8 -42 28 -52 42 -18 24 -11 22
75 -24 52 -27 121 -68 153 -89z m-254 25 c41 -45 123 -141 182 -213 58 -72
148 -174 200 -226 92 -94 319 -308 318 -301 0 2 7 -2 15 -9 12 -10 13 -15 4
-20 -6 -4 -19 0 -29 9 -47 45 -127 91 -156 91 -21 0 -84 41 -84 54 0 19 -47
59 -60 51 -8 -5 -6 -14 8 -29 37 -41 34 -50 -4 -13 -22 20 -44 37 -48 37 -20
0 -80 56 -142 133 -36 45 -72 86 -80 90 -8 4 -14 15 -14 23 0 8 -9 25 -20 37
-12 12 -24 33 -27 47 -3 14 -28 68 -54 120 -35 67 -41 86 -23 65 l25 -30 -11
28 c-11 30 -47 83 -89 131 -22 24 -23 27 -6 18 11 -5 54 -47 95 -93z m-31
-164 c71 -133 130 -224 208 -317 35 -43 61 -78 58 -78 -11 0 -102 74 -145 119
-85 86 -172 218 -185 281 -4 19 -11 41 -15 50 -11 21 -30 130 -29 166 0 22 7
11 28 -46 15 -41 51 -120 80 -175z m161 126 c143 -123 262 -247 383 -397 199
-247 228 -296 89 -152 -30 32 -75 71 -101 88 -25 16 -57 46 -71 67 -13 21 -41
56 -62 78 -45 49 -118 146 -118 158 0 4 -4 6 -9 3 -5 -4 -11 -2 -13 3 -7 20
-86 110 -163 186 -87 86 -55 69 65 -34z"/>
<path d="M3828 9255 c-4 -6 -19 -47 -34 -90 -15 -44 -35 -91 -44 -105 -34 -51
-35 -53 -9 -40 l24 13 -20 -24 c-15 -18 -15 -20 -3 -10 15 11 30 11 95 -2 68
-14 90 -14 176 -2 133 19 244 56 231 77 -4 7 -9 7 -13 0 -6 -10 -31 -18 -81
-26 -8 -2 -33 -8 -55 -14 -51 -14 -112 -18 -121 -9 -4 4 -13 -1 -21 -11 -12
-16 -13 -16 -7 2 6 16 4 17 -14 7 -12 -6 -23 -7 -26 -2 -3 5 8 14 26 20 17 6
29 13 26 16 -3 3 -17 1 -32 -5 -15 -5 -46 -10 -69 -10 l-42 0 55 37 c30 20 96
61 145 90 50 29 86 53 81 53 -6 0 -50 -23 -100 -51 -49 -28 -99 -52 -111 -54
-12 -1 -28 -6 -36 -10 -8 -4 0 7 16 25 l30 33 -35 -23 c-19 -13 -41 -30 -47
-38 -7 -9 -13 -11 -13 -6 0 6 16 29 36 52 36 43 37 56 1 25 -19 -18 -20 -17
-8 5 12 23 12 96 -1 77z"/>
<path d="M3780 8905 c-14 -17 -35 -21 -25 -5 8 14 2 13 -31 -5 -16 -8 -24 -15
-19 -16 6 -1 26 -3 45 -5 19 -2 56 -9 83 -15 26 -6 54 -9 62 -5 8 3 19 -3 24
-12 7 -12 10 -13 11 -3 0 18 59 7 115 -21 50 -26 52 -27 37 -37 -8 -4 4 -15
34 -29 25 -12 43 -18 40 -14 -3 5 -19 15 -36 22 -21 9 -28 16 -21 23 7 7 16 6
28 -6 10 -8 31 -21 47 -27 25 -9 27 -9 17 4 -20 24 -176 96 -252 115 l-74 19
60 -3 c77 -4 135 -15 135 -26 0 -5 6 -9 13 -9 8 0 22 -9 31 -19 9 -10 32 -21
49 -24 65 -9 56 7 -25 45 -88 42 -177 69 -193 60 -15 -9 -65 -9 -65 0 0 14
-77 9 -90 -7z"/>
<path d="M1718 8820 c2 -14 4 -76 3 -138 -1 -62 3 -129 8 -150 5 -20 12 -58
16 -85 3 -26 11 -45 16 -42 5 4 7 10 4 15 -13 21 20 21 37 0 l19 -24 -7 30
c-4 16 -10 34 -14 39 -3 6 -7 26 -8 45 -2 28 0 32 9 20 9 -12 10 -11 4 5 -4
11 -13 52 -20 90 -7 39 -14 61 -14 51 -1 -11 -4 -17 -7 -14 -3 3 -1 21 3 39 9
32 11 29 47 -76 55 -158 133 -306 213 -397 36 -43 69 -76 71 -73 3 3 -6 18
-20 33 -39 43 -73 96 -70 109 2 7 -2 13 -8 13 -5 0 -9 4 -8 8 4 12 -35 86 -50
95 -7 5 -10 12 -7 17 3 5 -8 31 -24 57 -16 26 -37 72 -46 101 -10 28 -21 52
-25 52 -4 0 -10 9 -13 20 -3 11 -1 18 4 14 5 -3 9 -3 9 -1 0 12 -67 135 -82
151 -22 24 -23 17 -3 -31 19 -45 19 -64 0 -39 -8 11 -15 30 -15 43 0 13 -4 23
-9 23 -5 0 -11 6 -14 13 -2 6 -2 1 1 -13z"/>
<path d="M1260 7790 c0 -42 -13 -89 -49 -175 -4 -11 -14 -38 -21 -60 -7 -22
-17 -42 -21 -45 -5 -4 -11 -22 -14 -40 -4 -29 -3 -31 4 -10 5 14 10 18 11 10
0 -8 3 -32 5 -52 3 -24 -1 -40 -9 -45 -7 -5 -15 -15 -18 -23 -6 -19 -38 39
-38 69 0 12 -28 47 -67 85 -54 53 -82 71 -147 97 -45 17 -96 40 -115 51 -39
22 -49 17 -34 -15 18 -38 32 -99 38 -169 7 -86 47 -205 78 -232 12 -12 17 -17
10 -12 -23 15 -14 -5 22 -49 l36 -43 -43 5 c-24 3 -51 10 -60 14 -9 5 -25 9
-35 8 -12 0 -9 -4 10 -11 54 -20 26 -46 -53 -49 -19 0 -46 -5 -60 -10 -16 -6
4 -7 60 -4 47 3 101 1 120 -4 32 -8 29 -9 -30 -10 -71 -2 -218 -25 -229 -37
-3 -4 12 -4 34 0 45 7 209 18 185 12 -8 -3 -55 -10 -105 -16 -49 -6 -132 -18
-182 -26 -51 -8 -109 -17 -129 -19 -73 -10 -102 -45 -36 -45 21 0 76 -11 121
-25 126 -37 197 -47 283 -40 43 4 75 11 72 16 -3 5 3 9 13 9 11 0 28 7 39 15
10 8 31 15 46 15 16 0 27 3 27 8 -1 4 -1 16 0 27 1 17 3 18 11 5 9 -13 10 -13
10 0 0 20 54 40 107 40 43 0 43 0 44 74 0 10 3 15 7 12 3 -4 12 8 18 26 10 28
13 30 19 14 10 -24 75 -94 75 -80 0 5 -5 15 -12 22 -6 6 -9 14 -6 17 3 4 12
-8 19 -24 8 -17 20 -31 26 -31 7 0 14 -10 14 -22 1 -17 3 -18 6 -6 2 9 -5 30
-16 45 -11 15 -23 42 -26 58 -4 23 -1 19 14 -15 l20 -45 -3 60 c-2 33 -2 48 1
33 2 -16 8 -28 12 -28 9 0 21 82 21 143 0 20 3 37 8 37 4 0 7 -19 7 -42 1 -24
5 -52 10 -62 6 -14 5 -17 -3 -12 -7 4 -13 4 -14 -1 -2 -11 -6 -48 -13 -117 -3
-32 -8 -63 -11 -67 -6 -10 -96 -5 -132 6 -19 6 -23 4 -20 -10 3 -21 -64 -74
-70 -56 -2 7 -13 4 -27 -6 -12 -10 -33 -25 -45 -33 -44 -29 -93 -70 -84 -70 4
0 3 -5 -4 -12 -7 -7 -12 -20 -12 -29 0 -10 -9 -21 -20 -24 -29 -9 -43 -40 -30
-65 10 -19 4 -25 -22 -21 -4 0 -5 -6 -2 -14 8 -19 -36 -81 -46 -65 -4 6 -10
-8 -13 -32 -3 -24 -2 -47 2 -51 18 -18 -29 -207 -51 -207 -5 0 -8 -8 -8 -17 0
-11 3 -14 8 -7 12 19 94 61 179 94 45 17 93 40 105 51 13 11 18 18 13 15 -6
-2 -17 -1 -25 4 -12 8 -4 20 39 62 53 51 54 43 2 -14 -13 -15 -22 -30 -19 -33
6 -6 77 77 110 130 13 22 40 78 58 124 29 70 36 80 41 60 6 -22 7 -22 8 -3 1
11 14 33 31 47 35 32 45 34 28 8 -7 -11 -16 -17 -20 -15 -10 6 -11 -10 -1 -19
3 -4 18 6 33 21 14 16 31 27 36 25 14 -5 50 24 41 33 -4 4 -21 0 -38 -10 -30
-17 -31 -17 -36 2 -4 19 -6 19 -31 -5 -34 -31 -46 -25 -53 28 -3 24 -7 35 -9
24 -2 -15 -4 -12 -9 10 -10 40 -6 45 35 45 26 0 34 -4 34 -17 0 -15 2 -16 9
-3 6 8 7 18 4 24 -3 5 -1 6 6 2 13 -9 39 14 34 30 -2 6 3 17 12 24 13 11 14
10 9 -3 -13 -34 8 -38 42 -7 19 16 39 30 44 30 6 0 10 8 10 18 0 10 6 19 14
19 8 0 19 -21 26 -54 7 -29 17 -53 22 -53 5 0 7 -3 5 -7 -6 -10 19 -34 27 -26
3 4 6 -1 6 -11 0 -9 7 -19 15 -22 21 -9 19 -25 -2 -17 -10 3 -15 3 -11 -1 3
-4 12 -8 20 -10 7 -1 18 -5 25 -9 7 -4 29 -1 49 8 21 9 40 11 43 6 3 -5 27
-10 53 -12 32 -3 44 -1 37 7 -5 6 -4 18 4 28 11 15 21 17 54 11 41 -6 57 -23
47 -48 -3 -8 14 -21 48 -35 44 -18 60 -20 93 -12 66 16 72 14 72 -25 0 -25 -5
-35 -18 -37 -13 -2 6 -27 74 -98 51 -52 120 -121 155 -153 34 -33 62 -62 62
-67 0 -4 6 -10 14 -13 11 -5 11 4 1 51 -7 31 -18 96 -24 145 -12 88 -67 247
-88 254 -6 2 -20 -22 -32 -54 -14 -38 -19 -46 -15 -23 4 19 11 46 17 60 18 44
1 95 -29 83 -10 -3 -14 2 -15 18 0 22 -2 21 -12 -6 -22 -55 -62 -135 -68 -135
-3 0 3 46 13 103 22 128 23 117 -8 152 -31 35 -84 145 -84 175 0 20 -16 92
-31 140 l-7 25 -13 -32 c-8 -18 -17 -33 -21 -33 -4 0 -8 -5 -8 -12 0 -6 -7
-19 -16 -29 -9 -10 -20 -33 -24 -51 -8 -32 -8 -32 -9 12 -1 36 -4 42 -12 27
-6 -10 -8 -30 -4 -45 3 -17 0 -35 -10 -47 -14 -19 -15 -16 -10 35 5 56 2 58
-11 5 -6 -24 -9 -13 -19 61 -6 50 -22 111 -33 136 -12 24 -22 59 -22 77 0 30
1 31 23 20 21 -11 21 -11 -3 17 -81 92 -90 100 -90 79 0 -17 -2 -18 -11 -5 -8
12 -9 10 -4 -7 4 -14 2 -23 -4 -23 -6 0 -11 13 -11 29 0 17 -4 33 -10 36 -5 3
-10 11 -10 17 0 6 8 4 18 -5 32 -29 34 -19 5 21 -15 20 -28 39 -30 41 -2 2 -6
2 -9 -2 -4 -3 0 -28 9 -54 21 -67 40 -163 33 -170 -3 -4 -6 3 -6 15 0 24 -15
30 -23 10 -3 -7 -6 2 -7 20 -2 17 -4 37 -5 42 -1 6 -3 27 -4 48 -2 30 -4 33
-11 17 -7 -16 -9 -17 -9 -3 -1 9 4 20 9 23 6 4 8 16 4 28 -3 11 -6 40 -6 64 1
24 -3 43 -8 43 -6 0 -10 -21 -10 -47 0 -47 -26 -133 -40 -133 -4 0 -10 -17
-14 -39 -3 -21 -13 -44 -21 -51 -8 -7 -15 -22 -15 -34 -1 -11 -7 -34 -15 -51
l-14 -30 5 38 c4 20 2 37 -3 37 -12 0 -40 -153 -46 -252 -1 -14 -6 -30 -10
-34 -16 -16 0 199 17 231 9 17 16 37 16 45 0 8 9 30 20 48 26 42 25 64 -1 32
l-21 -24 -19 24 c-10 14 -19 30 -19 37 0 6 -34 42 -75 80 -42 37 -78 78 -82
91 -3 14 -11 21 -19 18 -8 -3 -11 0 -7 10 3 7 0 14 -6 14 -7 0 -11 -20 -11
-50z m55 -52 c-3 -7 -1 -26 4 -43 5 -16 10 -22 10 -12 1 26 11 21 63 -34 32
-35 48 -60 48 -78 0 -20 -2 -23 -10 -11 -5 8 -10 23 -10 32 0 9 -5 20 -10 23
-7 4 -8 -5 -4 -27 3 -18 8 -44 10 -58 9 -51 13 -209 5 -214 -4 -3 -11 50 -15
117 -5 107 -21 206 -31 195 -1 -1 0 -24 4 -50 4 -26 4 -53 0 -59 -4 -7 -1 -32
6 -57 9 -29 11 -52 5 -67 -6 -16 -5 -25 3 -28 8 -2 6 -9 -6 -21 -9 -10 -17
-22 -17 -27 0 -5 -4 -9 -10 -9 -14 0 0 213 14 222 7 5 4 8 -6 8 -14 0 -18 -9
-19 -37 l-1 -38 -8 35 c-5 19 -7 64 -5 100 3 37 1 59 -4 52 -6 -9 -12 1 -20
33 -6 25 -9 50 -6 56 9 13 15 11 10 -3z m-308 -714 c-10 -11 -144 -34 -227
-41 -101 -7 -159 -21 -95 -22 22 0 72 4 110 9 39 6 86 12 105 14 l35 5 -35
-17 c-26 -12 -73 -16 -190 -19 -100 -2 -148 0 -135 6 15 7 4 10 -45 12 l-65 2
60 7 c33 5 125 13 205 20 80 6 168 15 195 19 70 10 88 11 82 5z m180 -187 c-2
-19 -12 -45 -21 -59 -9 -13 -14 -27 -11 -30 6 -6 -24 -89 -34 -98 -3 -3 -28
-38 -56 -79 -48 -72 -126 -143 -133 -122 -2 6 -9 8 -15 4 -7 -3 10 13 36 37
29 26 46 48 43 57 -3 8 -2 12 3 8 5 -3 19 8 30 24 29 41 26 52 -5 16 -15 -19
-21 -22 -15 -9 11 22 30 41 46 45 6 1 17 12 25 23 19 25 86 162 95 194 10 33
17 27 12 -11z"/>
<path d="M1400 6958 c0 -7 16 -23 35 -36 l36 -23 -18 -29 c-9 -17 -21 -30 -25
-30 -4 0 -6 -8 -6 -17 1 -10 -10 -42 -25 -71 -15 -30 -27 -62 -27 -73 0 -10
-3 -19 -8 -19 -4 0 -13 -19 -20 -42 -8 -24 -19 -50 -26 -58 -7 -8 -22 -36 -32
-62 -10 -27 -22 -48 -26 -48 -11 0 -4 54 8 65 7 6 15 21 18 35 3 14 3 19 0 13
-3 -7 -12 -13 -21 -13 -8 0 -28 -13 -45 -30 -16 -16 -37 -30 -47 -30 -9 0 -23
-9 -31 -20 -8 -11 -20 -20 -26 -20 -7 0 -15 -14 -19 -31 -4 -17 -12 -32 -19
-35 -6 -2 -13 -18 -14 -35 -2 -19 2 -28 8 -24 5 3 10 0 10 -9 0 -8 3 -23 6
-33 5 -14 4 -15 -4 -4 -7 10 -10 3 -9 -27 2 -41 10 -52 22 -32 9 15 25 2 18
-15 -12 -33 16 -12 46 35 32 49 49 65 37 35 -3 -8 -3 -15 0 -15 11 0 125 123
140 151 8 16 19 29 24 29 15 0 12 -14 -8 -36 -10 -10 -31 -37 -47 -59 -16 -22
-44 -56 -62 -75 -34 -35 -41 -50 -23 -50 6 0 10 4 10 9 0 5 15 13 33 16 17 4
40 16 50 26 10 11 22 19 27 19 11 0 60 51 60 62 0 4 16 24 35 44 19 19 35 41
35 47 0 7 9 23 19 36 19 24 17 59 -3 74 -7 5 1 18 24 37 19 17 37 30 41 30 4
0 20 5 35 10 21 8 24 14 16 22 -7 7 -12 20 -12 30 0 10 -4 18 -8 18 -15 0 -82
70 -82 85 0 16 45 21 54 6 4 -5 21 -5 42 2 l35 11 -25 13 c-28 15 -33 28 -15
39 7 4 -12 17 -44 29 -30 13 -76 37 -101 54 -28 20 -46 27 -46 19z"/>
<path d="M1933 6483 c-15 -3 -23 -12 -23 -24 0 -11 3 -18 8 -16 4 3 4 -67 0
-156 -4 -89 -5 -163 -3 -165 2 -2 18 1 36 7 18 6 50 11 72 11 38 0 39 1 24 18
-21 23 -22 71 -2 78 8 3 29 -1 46 -10 30 -15 33 -15 45 2 7 9 14 12 14 7 0 -6
-5 -16 -12 -23 -16 -16 27 -62 58 -62 12 0 25 -7 28 -16 3 -8 2 -13 -3 -10 -5
3 -12 -1 -15 -10 -9 -23 -7 -36 4 -29 6 3 7 -1 4 -9 -14 -36 103 -35 132 0 6
8 14 14 18 14 9 0 -32 -61 -52 -77 -14 -12 -14 -13 2 -13 16 0 17 -2 5 -17
-13 -17 -13 -17 5 -3 24 19 54 87 54 125 0 25 -2 27 -13 12 -7 -9 -15 -17 -19
-17 -4 0 -14 -7 -23 -16 -9 -8 -22 -13 -30 -10 -8 4 -20 3 -26 -1 -36 -23 -34
-6 4 33 49 50 53 52 46 24 -3 -11 -1 -18 4 -15 4 3 7 18 6 34 l-2 27 -44 -43
c-25 -23 -46 -41 -48 -39 -8 8 28 72 46 84 12 7 21 18 21 25 0 9 -2 9 -8 0 -9
-15 -71 -39 -92 -37 -8 1 -21 2 -27 3 -21 2 -15 17 7 18 19 2 144 61 206 98
27 16 34 17 48 6 14 -12 14 -15 2 -25 -17 -14 -54 -114 -52 -141 2 -11 12 -38
24 -60 23 -44 28 -43 11 2 -17 46 -2 126 35 180 37 55 40 94 9 120 -63 53 -63
53 -63 39 0 -8 16 -35 35 -60 19 -25 32 -46 29 -46 -3 0 -46 27 -96 60 -49 33
-95 60 -101 60 -18 0 -57 -29 -57 -42 0 -6 8 -8 18 -6 11 3 19 0 19 -7 0 -15
-19 -10 -57 14 l-25 16 23 -32 c41 -58 19 -100 -28 -53 -40 40 -48 90 -15 90
9 0 12 6 8 16 -4 10 2 17 16 21 21 5 20 7 -11 26 -25 16 -53 21 -118 23 -47 1
-95 0 -107 -3z"/>
<path d="M1582 6458 c-6 -13 -16 -40 -23 -60 -7 -20 -16 -35 -21 -32 -4 3 -5
-2 -2 -11 3 -8 -3 -35 -15 -60 -15 -32 -21 -62 -20 -107 l2 -63 9 65 c14 98
18 111 28 105 11 -7 5 -66 -16 -140 -23 -82 -16 -149 18 -197 20 -26 28 -49
25 -64 -2 -13 -1 -21 3 -19 5 3 11 -2 14 -11 3 -8 2 -12 -4 -9 -6 4 -7 -3 -2
-17 4 -13 5 -50 1 -83 -3 -33 -6 -53 -7 -46 -2 12 -5 12 -14 3 -15 -15 -11
-19 27 -27 17 -4 25 -3 18 2 -17 12 -13 152 5 146 6 -3 12 0 12 6 0 6 -4 11
-9 11 -13 0 -20 36 -10 51 12 20 17 9 35 -77 21 -102 28 -108 19 -16 -6 52 -4
72 4 72 7 0 11 6 10 13 -5 36 2 87 12 87 8 0 10 -17 5 -57 -4 -31 -4 -54 -1
-51 4 3 8 12 9 20 2 7 5 20 8 28 3 8 13 46 22 84 9 39 20 72 25 75 5 4 16 67
25 141 24 186 26 202 31 228 5 22 4 22 -91 22 -81 0 -99 -3 -110 -17 -12 -16
-12 -16 -7 5 3 12 3 22 1 22 -3 0 -10 -10 -16 -22z"/>
<path d="M1855 6468 c-3 -7 -8 -40 -13 -72 -5 -40 -12 -61 -22 -63 -10 -3 -11
-2 -4 4 15 11 28 133 14 133 -5 0 -10 -1 -10 -3 0 -1 -5 -40 -10 -86 -9 -67
-8 -87 3 -100 11 -13 11 -28 -2 -96 -11 -60 -16 -74 -21 -55 -8 32 -16 17 -24
-45 -5 -38 -4 -47 5 -35 9 13 10 12 5 -3 -3 -10 -6 -21 -6 -23 0 -3 -5 -2 -12
2 -8 5 -9 2 -5 -9 4 -10 2 -17 -4 -17 -7 0 -9 -11 -7 -25 4 -18 2 -23 -6 -16
-8 7 -12 3 -14 -15 -1 -13 -9 -41 -18 -62 -10 -20 -16 -45 -15 -54 1 -10 -2
-18 -7 -18 -4 0 -9 -24 -11 -52 -1 -29 -4 -60 -7 -70 -3 -9 0 -19 5 -22 6 -4
8 -13 4 -21 -6 -18 8 -20 25 -3 18 18 15 28 -9 28 -12 0 -19 5 -16 13 2 6 9
11 15 10 6 -2 7 8 3 25 -8 30 14 112 31 112 5 0 7 4 4 9 -7 11 21 81 32 81 12
0 52 78 52 100 0 11 4 21 9 24 4 3 6 -6 3 -21 -3 -18 -1 -24 7 -19 6 4 11 16
11 26 0 10 3 20 8 22 17 8 42 111 48 203 3 55 6 105 5 110 -9 72 -18 109 -28
113 -7 2 -15 -2 -18 -10z"/>
<path d="M1397 6082 c0 -92 -2 -156 -6 -142 -11 40 -17 5 -16 -92 1 -62 6 -93
18 -112 23 -35 21 -46 -7 -46 -14 0 -28 -5 -31 -11 -4 -6 -14 -8 -22 -4 -13 4
-14 3 -3 -10 10 -12 10 -15 0 -15 -7 0 -21 -10 -31 -22 -11 -12 -19 -16 -19
-8 0 7 7 18 15 24 12 9 12 14 0 30 -14 18 -15 17 -27 -10 -7 -16 -34 -59 -60
-96 -27 -38 -45 -68 -42 -68 4 0 1 -7 -6 -15 -7 -9 -10 -18 -8 -21 3 -3 49 37
102 87 52 51 112 102 133 113 21 12 44 34 51 49 7 15 17 27 21 27 11 0 8 41
-4 60 -6 8 -10 83 -11 165 0 114 -4 164 -18 210 -10 33 -21 63 -25 67 -3 4 -5
-68 -4 -160z"/>
<path d="M910 6114 c0 -4 7 -12 14 -18 18 -14 35 -72 17 -62 -15 9 -15 -25 1
-59 13 -29 27 -34 23 -7 -1 9 0 11 2 5 3 -7 9 -13 15 -13 6 0 8 -3 5 -7 -4 -3
0 -11 9 -17 8 -6 16 -18 18 -26 5 -25 29 -70 38 -70 4 0 8 -8 8 -17 -1 -17 -1
-17 -11 0 -6 9 -14 15 -20 12 -5 -3 -6 1 -3 9 3 9 -3 20 -15 27 -16 11 -18 16
-8 29 11 13 10 13 -6 1 -17 -13 -17 -16 -3 -26 9 -7 13 -15 9 -18 -3 -4 -1 -7
5 -7 7 0 11 -4 9 -9 -1 -5 15 -32 35 -59 38 -52 39 -62 4 -62 -17 0 -18 -2 -6
-10 12 -8 12 -10 1 -10 -8 0 -11 -3 -8 -6 8 -9 -11 -44 -23 -44 -6 0 -10 10
-10 23 l-1 22 -13 -24 c-14 -25 -15 -76 -1 -89 5 -4 5 -2 2 4 -3 6 0 11 8 11
11 0 11 -6 -2 -31 l-17 -31 -6 25 -7 25 -8 -30 c-4 -16 -15 -36 -24 -43 -8 -7
-16 -20 -16 -30 0 -10 -6 -16 -15 -14 -8 2 -12 0 -8 -3 13 -14 -11 -44 -32
-40 -11 2 -18 0 -15 -5 7 -11 -8 -41 -31 -65 -9 -9 -13 -19 -9 -23 3 -4 29 17
57 46 28 29 52 51 54 49 2 -2 -3 -21 -11 -42 -19 -45 -15 -53 11 -23 12 13 14
18 4 13 -9 -5 -12 -5 -7 1 5 5 14 9 20 9 13 0 40 50 87 165 61 145 71 162 92
157 13 -4 18 -1 15 7 -4 10 6 11 45 5 62 -10 79 -24 20 -16 -37 4 -41 3 -31
-10 10 -12 10 -16 -2 -24 -8 -5 -19 -7 -25 -5 -6 2 -15 -13 -21 -34 -9 -37 -9
-38 11 -27 37 21 56 39 49 50 -3 5 -2 7 4 4 5 -4 25 5 43 18 19 14 40 25 48
25 7 0 11 4 8 9 -9 14 32 44 54 38 11 -3 20 -1 20 4 0 5 -7 9 -14 9 -25 0 -63
62 -74 120 -20 104 -32 153 -38 159 -6 5 0 -46 11 -104 2 -11 -1 -8 -7 8 -7
15 -15 27 -20 27 -4 0 -5 8 -2 18 5 16 5 16 -6 0 -8 -14 -4 -33 20 -89 17 -40
29 -74 26 -76 -2 -2 -21 30 -42 71 -20 42 -39 74 -41 72 -8 -8 81 -174 90
-169 6 3 7 1 3 -5 -3 -6 -2 -22 4 -36 14 -39 7 -32 -30 27 -18 28 -35 46 -37
40 -3 -7 5 -28 16 -46 19 -32 19 -33 1 -34 -13 -1 -17 3 -14 15 2 9 -1 7 -7
-5 -12 -23 -49 -32 -49 -13 0 6 7 10 16 10 10 0 -3 18 -34 45 -43 39 -119 148
-125 179 -2 11 -13 26 -34 51 -7 7 -13 19 -13 25 0 16 -32 70 -42 70 -4 0 -8
-3 -8 -6z"/>
<path d="M1908 6068 c-2 -13 -8 -22 -14 -21 -6 1 -22 -17 -34 -40 -42 -74 -70
-111 -70 -93 0 16 -2 16 -15 2 -8 -8 -15 -18 -15 -22 0 -4 -7 -16 -17 -26 -9
-10 -12 -18 -7 -18 5 0 9 -11 9 -25 0 -14 -4 -25 -9 -25 -5 0 -7 -3 -3 -6 3
-4 0 -19 -8 -35 -17 -32 -20 -53 -4 -26 10 17 14 15 43 -19 19 -22 42 -37 56
-38 16 -1 24 -7 22 -16 -4 -18 10 -5 146 128 58 56 100 102 93 102 -6 0 -10 5
-8 12 1 6 -6 14 -16 16 -13 3 -24 -12 -47 -63 -18 -41 -34 -64 -41 -60 -8 5
-8 10 0 18 6 6 11 26 11 44 0 18 4 33 8 33 12 0 33 50 27 61 -4 5 1 9 9 9 9 0
16 8 16 18 0 10 7 28 16 41 16 22 16 22 -12 19 -24 -2 -33 -13 -54 -55 -14
-29 -28 -53 -32 -53 -14 0 -8 35 12 68 24 39 24 42 6 42 -7 0 -25 12 -39 26
l-25 25 -4 -23z"/>
<path d="M632 5991 c2 -8 12 -15 21 -17 16 -2 171 -124 207 -163 8 -9 32 -31
53 -48 21 -18 34 -33 29 -33 -4 0 -12 4 -17 9 -16 14 -59 25 -51 13 6 -11 -41
-1 -64 13 -5 3 -10 2 -10 -3 0 -6 23 -18 50 -28 29 -11 46 -22 41 -27 -5 -5
-17 -5 -27 1 -22 11 -47 5 -38 -9 3 -5 16 -9 30 -9 13 0 24 -4 24 -10 0 -5 -7
-10 -15 -10 -20 0 -65 22 -60 29 2 4 -4 7 -13 8 -9 0 -42 10 -72 22 -60 24
-210 64 -216 58 -2 -1 40 -18 94 -36 53 -19 115 -43 137 -55 22 -11 54 -26 70
-33 45 -18 3 -16 -72 3 -45 11 -67 13 -76 5 -7 -5 -24 -7 -38 -4 -40 10 -13
-9 43 -30 29 -11 66 -20 82 -20 24 0 26 -1 11 -10 -10 -5 -65 -9 -124 -8 -83
1 -119 7 -163 24 -32 12 -58 25 -58 29 0 4 19 9 43 11 l42 4 -47 1 c-27 1 -48
-2 -48 -7 0 -4 -12 -7 -27 -4 -24 3 -25 2 -8 -6 11 -5 42 -18 69 -27 27 -10
43 -20 36 -22 -8 -3 -5 -9 10 -17 23 -12 21 -13 -31 -24 -30 -6 -76 -13 -103
-16 -106 -11 -54 -17 86 -10 125 6 150 4 163 -8 21 -22 38 -16 74 26 18 20 37
37 41 37 5 0 6 -17 3 -37 l-5 -38 43 46 c71 73 93 89 149 104 58 15 60 6 2
-11 -25 -7 -37 -16 -36 -27 1 -9 -2 -14 -7 -12 -11 8 -33 -34 -35 -71 -2 -16
-20 -64 -41 -107 -22 -42 -35 -73 -29 -69 6 3 17 7 25 9 7 1 19 7 25 13 8 8 6
9 -8 4 -16 -6 -17 -5 -7 15 7 11 32 50 56 85 25 35 45 68 45 72 0 5 23 36 50
69 28 33 50 67 50 75 0 9 -12 23 -27 32 -46 27 -78 58 -78 76 0 10 -7 16 -17
16 -10 -1 -14 4 -11 12 3 8 1 14 -5 14 -5 0 -27 16 -48 35 -42 37 -154 101
-154 88 0 -4 -5 -1 -11 7 -8 12 -10 12 -7 1z"/>
<path d="M7588 4558 c-13 -18 -34 -49 -46 -69 -12 -20 -55 -59 -95 -87 -79
-55 -117 -101 -173 -212 -99 -198 -113 -385 -39 -536 51 -105 53 -101 -80
-234 l-119 -119 -35 31 c-43 38 -180 128 -194 128 -5 0 2 -9 16 -21 15 -11 26
-26 24 -32 -1 -7 4 -11 11 -9 8 1 11 -2 8 -7 -4 -5 -2 -12 4 -16 6 -4 8 -10 5
-15 -3 -5 3 -11 14 -15 10 -3 21 -15 24 -26 5 -19 4 -20 -16 -5 -57 41 -56 33
1 -19 56 -51 77 -85 53 -85 -16 0 -97 37 -140 64 -22 14 -62 35 -88 45 -26 11
-86 35 -133 55 -87 36 -147 49 -76 16 23 -11 33 -20 25 -23 -8 -2 -4 -2 8 0
26 4 95 -26 87 -39 -3 -4 1 -5 8 -3 17 7 141 -53 134 -64 -3 -5 5 -16 19 -25
14 -9 37 -24 52 -33 15 -10 24 -12 20 -5 -13 19 8 14 34 -9 13 -11 18 -17 10
-13 -9 5 -12 3 -7 -5 4 -6 12 -9 17 -5 9 5 125 -83 164 -125 37 -42 3 -19 -60
39 -45 42 -69 58 -82 54 -15 -5 -16 -4 -3 5 12 9 11 11 -9 11 -23 0 -24 -1 -6
-20 10 -11 16 -22 14 -25 -3 -2 -43 14 -89 37 -203 98 -256 108 -70 14 133
-67 360 -196 347 -196 -4 0 -25 9 -47 20 -22 11 -48 20 -58 20 -23 0 -175 50
-182 59 -3 4 -21 13 -40 21 -19 7 -64 28 -100 46 -36 18 -99 48 -140 67 -41
19 -100 46 -130 60 -30 14 -89 39 -130 57 -41 17 -106 46 -144 64 l-68 33 73
7 c91 10 81 10 159 2 62 -5 60 -4 -35 18 -117 27 -140 34 -107 35 12 1 22 7
22 15 0 8 8 15 18 16 120 5 215 3 251 -7 24 -7 49 -13 55 -12 20 1 -69 38 -94
38 -14 1 -45 7 -70 15 -59 18 -29 24 65 14 39 -4 78 -5 89 -2 13 4 16 3 11 -6
-5 -8 -4 -11 3 -6 6 3 14 1 17 -4 4 -7 19 -8 36 -5 21 5 47 -2 96 -25 38 -18
71 -37 74 -43 4 -5 15 -7 25 -3 17 7 17 9 -6 21 -33 19 -176 75 -190 75 -6 0
-8 -4 -5 -10 3 -5 2 -10 -4 -10 -5 0 -14 7 -19 16 -6 10 -23 16 -48 17 -21 0
-43 4 -49 8 -5 4 -47 14 -92 24 -114 23 -207 13 -346 -37 -53 -19 -68 -20
-196 -12 l-138 9 89 -84 c82 -77 94 -94 138 -186 57 -123 101 -192 164 -262
31 -35 52 -50 62 -46 9 3 19 2 23 -3 8 -12 60 -48 91 -63 19 -9 17 -5 -10 18
-19 17 -45 39 -57 50 -12 10 -25 16 -30 12 -4 -3 -5 -2 -1 3 4 5 -3 17 -15 28
-27 24 -4 13 38 -17 30 -21 65 -38 65 -31 0 3 -15 14 -34 25 -18 12 -56 44
-82 73 -27 28 -59 62 -70 74 -12 13 -19 25 -17 28 3 3 0 14 -8 23 -12 16 -12
17 1 7 132 -98 187 -133 296 -191 71 -37 152 -76 179 -86 257 -93 377 -110
555 -81 15 2 11 -1 -10 -9 -24 -8 -36 -19 -37 -34 -2 -13 2 -23 9 -23 6 0 8
-3 5 -7 -4 -3 -16 2 -28 12 -22 20 -48 13 -57 -16 -4 -10 1 -9 15 4 19 17 22
17 37 2 29 -29 31 -60 12 -197 -3 -21 -1 -38 4 -38 11 0 18 26 19 75 1 61 11
97 38 132 25 33 42 36 77 16 14 -7 17 -18 14 -38 -5 -23 -1 -29 28 -41 31 -13
32 -16 24 -45 -16 -55 -80 -139 -106 -139 -14 0 -48 -51 -59 -88 -5 -18 0 -31
22 -55 l28 -32 -33 30 c-34 31 -55 85 -68 180 -4 27 -16 62 -27 76 -10 15 -22
42 -26 60 l-7 34 -139 1 c-134 1 -145 3 -250 39 -154 52 -263 105 -359 176
-38 27 -46 29 -140 29 -123 0 -201 17 -267 59 -28 17 -53 31 -56 31 -3 0 6
-19 20 -43 40 -67 66 -142 93 -267 37 -172 91 -299 159 -378 69 -80 50 -21
-21 64 -23 27 -44 59 -48 72 -18 66 -18 68 3 37 15 -21 21 -25 21 -13 0 14
-22 63 -81 180 -13 25 -11 32 4 19 8 -6 16 -8 20 -5 3 3 3 -3 0 -14 -3 -14 1
-22 16 -27 11 -3 20 -11 18 -17 -1 -6 4 -13 12 -16 8 -3 11 0 7 7 -4 6 -5 11
-2 11 2 0 15 -18 27 -40 12 -22 25 -38 27 -35 3 2 29 -23 60 -55 30 -33 59
-60 63 -60 17 0 8 19 -22 47 -36 33 -172 211 -194 254 -16 29 -15 29 5 17 11
-7 22 -20 25 -28 3 -8 17 -21 32 -27 16 -7 51 -34 78 -61 28 -27 56 -47 63
-44 7 2 12 -5 12 -15 0 -20 18 -43 33 -43 4 0 5 4 2 10 -3 5 0 8 7 5 7 -3 21
-19 30 -36 11 -18 22 -27 29 -23 7 4 9 3 5 -4 -6 -10 12 -27 64 -62 13 -8 35
-25 51 -38 15 -13 30 -22 32 -20 2 2 27 -17 56 -42 28 -25 59 -48 69 -52 11
-4 12 -7 3 -7 -8 -1 -4 -8 10 -20 19 -15 27 -17 38 -8 11 9 13 9 8 0 -5 -7 5
-19 23 -29 16 -10 30 -21 30 -25 0 -4 14 -10 30 -14 17 -4 30 -10 30 -15 0 -4
12 -12 28 -18 15 -5 43 -19 62 -31 l35 -21 -35 6 c-49 9 -254 90 -320 127 -84
46 -189 119 -249 173 -87 77 -29 5 95 -119 93 -93 188 -153 317 -202 26 -10
46 -20 44 -22 -3 -2 -54 14 -114 35 -129 46 -258 113 -340 179 -89 71 -92 72
-39 13 59 -66 76 -81 87 -75 4 3 15 -5 23 -17 9 -12 16 -18 16 -13 0 5 6 1 13
-10 9 -11 19 -15 27 -10 9 5 11 4 6 -3 -4 -7 9 -19 36 -31 44 -20 76 -32 81
-29 1 1 13 -5 27 -12 14 -8 27 -15 30 -16 3 -1 15 -5 28 -9 12 -4 22 -11 22
-16 0 -5 17 -9 38 -9 49 0 55 -7 30 -32 -16 -16 -29 -19 -66 -15 -73 8 -131
23 -150 40 -9 8 -43 27 -74 41 -32 15 -60 31 -63 37 -4 5 -26 18 -50 29 -24
11 -73 50 -109 87 l-66 67 -169 -168 -169 -169 -92 -8 c-51 -5 -102 -12 -114
-15 -18 -6 -16 -8 14 -23 19 -9 58 -45 88 -81 29 -36 70 -85 90 -109 20 -24
55 -71 76 -105 50 -77 61 -85 117 -86 61 0 221 -33 287 -59 127 -50 170 -79
245 -166 41 -46 77 -96 79 -110 5 -25 5 -25 -15 -8 l-21 18 18 -29 c13 -21 -4
-10 -60 38 -77 64 -209 141 -287 166 -64 20 -52 4 15 -20 95 -35 211 -107 286
-178 37 -35 60 -59 51 -53 -23 16 -89 42 -89 36 0 -3 17 -13 38 -22 20 -9 32
-18 27 -20 -6 -2 -96 31 -200 73 -259 103 -414 153 -446 142 -8 -3 29 -15 81
-28 52 -13 138 -40 190 -61 52 -20 160 -63 239 -94 123 -49 151 -56 190 -52
25 3 47 10 49 16 2 6 8 11 14 11 6 0 26 11 45 26 18 14 33 21 33 17 0 -4 -23
-24 -50 -43 -27 -19 -50 -40 -50 -46 0 -18 -41 -65 -51 -58 -5 3 -16 -10 -24
-29 -8 -20 -20 -37 -26 -39 -8 -3 -10 -14 -5 -33 5 -20 10 -25 15 -16 5 8 14
-9 24 -46 20 -75 106 -313 106 -293 1 18 -36 140 -83 280 -26 77 -33 107 -24
115 8 7 9 6 4 -2 -4 -7 9 -30 32 -55 66 -72 119 -164 169 -293 21 -54 23 -56
17 -20 -12 83 -120 277 -179 323 -14 11 -25 23 -25 27 0 4 17 -7 39 -24 21
-17 41 -28 44 -25 3 4 20 -4 36 -16 17 -11 35 -19 39 -16 5 3 8 26 7 51 -3 62
11 66 35 9 28 -65 34 -50 10 26 -23 72 -27 107 -8 75 7 -11 13 -24 14 -30 1
-9 30 -55 81 -132 23 -34 3 17 -30 75 -16 28 -24 52 -18 52 11 0 68 -55 139
-136 27 -31 19 -17 -23 40 -144 195 -91 158 135 -92 16 -19 30 -37 30 -42 0
-5 6 -10 14 -12 15 -3 126 -135 126 -149 0 -5 29 -48 65 -95 36 -47 63 -89 60
-94 -3 -5 5 -26 19 -47 14 -21 37 -65 52 -98 l26 -60 -26 27 c-32 35 -44 36
-21 1 21 -31 66 -72 80 -73 6 0 4 4 -4 9 -7 5 -11 17 -7 27 3 11 1 48 -4 84
l-9 65 4 -70 4 -70 -23 62 c-32 86 -137 274 -204 363 -80 108 -183 228 -315
367 -64 68 -121 132 -127 144 -7 11 29 -13 80 -55 50 -42 94 -76 98 -76 8 1
-58 64 -102 98 -39 30 -29 36 17 12 20 -11 42 -20 48 -20 7 0 35 -14 63 -30
l51 -31 -40 35 c-22 20 -75 54 -118 76 -85 44 -87 48 -13 25 57 -17 66 -18 66
-6 0 5 -11 12 -25 15 -28 7 -35 29 -7 24 9 -2 16 2 15 8 -5 28 34 -1 51 -37
11 -21 44 -69 75 -105 31 -37 75 -92 99 -123 66 -86 112 -130 130 -124 9 4 13
2 9 -4 -4 -6 3 -13 14 -16 12 -3 18 -10 15 -16 -6 -10 51 -57 60 -48 3 2 -10
14 -28 26 -29 18 -31 21 -10 21 12 0 22 -4 22 -10 0 -5 4 -10 10 -10 12 0 113
-61 121 -73 3 -5 9 -8 13 -8 26 4 35 -1 30 -14 -7 -18 26 -21 43 -4 8 8 18 6
37 -6 15 -10 34 -19 44 -20 38 -4 130 -48 161 -76 12 -11 21 -15 21 -10 0 5
-19 26 -42 45 -149 124 -186 153 -210 165 -16 8 -28 18 -28 23 0 11 -78 83
-89 83 -12 0 -81 64 -81 75 0 5 -7 10 -15 10 -8 0 -15 4 -15 8 0 4 -27 37 -60
72 -33 36 -70 78 -83 94 -12 15 -35 42 -51 59 -15 16 -35 45 -42 64 -8 18 -19
33 -24 33 -6 0 -10 7 -10 16 0 10 6 14 15 10 25 -9 17 12 -41 110 -31 52 -55
97 -52 99 2 2 21 -24 41 -58 43 -73 185 -249 207 -255 8 -2 5 4 -8 13 -13 9
-27 27 -33 39 -5 11 -20 38 -34 58 -14 21 -21 38 -15 38 5 0 10 -5 10 -11 0
-6 6 -9 13 -6 8 3 20 -3 28 -14 7 -10 18 -19 23 -19 6 0 26 -15 46 -32 19 -18
-10 15 -66 72 -112 116 -216 237 -235 272 -12 22 -12 22 -20 3 -6 -16 -8 -14
-8 13 -1 27 3 32 22 32 12 0 29 -5 37 -11 12 -9 11 -10 -7 -6 -14 3 -23 0 -23
-6 0 -18 134 -172 289 -334 78 -80 138 -150 134 -156 -3 -5 -1 -7 4 -4 14 9
47 -29 37 -44 -4 -7 -3 -10 3 -6 17 10 113 -113 255 -325 43 -64 78 -120 78
-123 0 -3 16 -27 36 -55 19 -27 35 -53 34 -57 -1 -4 4 -9 10 -11 23 -8 -9 86
-42 124 -15 17 -17 26 -9 47 7 18 7 28 0 33 -7 4 -8 9 -1 13 5 3 11 32 14 64
3 37 2 53 -4 43 -5 -9 -13 -16 -17 -16 -9 0 -12 9 -51 118 -29 80 -35 76 -10
-7 26 -83 26 -90 -7 -88 -20 2 -34 14 -52 43 -83 133 -237 324 -379 469 -59
60 -99 104 -89 96 9 -8 20 -11 24 -8 9 10 145 -106 227 -194 41 -45 106 -126
142 -180 37 -55 69 -99 71 -99 2 0 -6 18 -17 39 -35 70 -173 242 -277 349 -57
57 -103 106 -103 108 0 2 7 4 15 4 8 0 15 3 15 8 0 16 -104 76 -184 107 -83
31 -111 45 -88 45 19 0 169 -67 254 -113 45 -25 115 -74 153 -109 39 -34 65
-56 59 -48 -47 65 -92 116 -105 118 -20 5 -49 33 -49 48 0 7 -20 25 -45 40
-25 14 -45 28 -45 30 0 7 45 -14 98 -45 56 -33 72 -29 19 5 -37 24 -49 65 -16
57 28 -8 23 9 -11 42 -29 28 -31 51 -4 41 11 -4 13 1 8 22 -4 15 -10 29 -13
32 -3 3 -21 33 -39 68 -31 59 -32 62 -10 50 13 -7 25 -16 28 -19 8 -9 84 -34
95 -30 5 1 14 -4 20 -11 6 -7 33 -33 60 -58 l49 -45 -48 55 c-189 217 -201
230 -228 230 l-28 0 21 38 c26 47 44 65 92 91 38 21 38 21 32 1 -4 -14 -2 -20
8 -20 8 0 18 -7 21 -16 3 -8 10 -12 16 -9 20 12 10 -17 -12 -35 l-22 -17 59
-44 c32 -24 69 -54 82 -66 12 -12 23 -18 23 -12 0 12 41 -11 58 -34 7 -9 18
-15 23 -12 5 4 9 1 9 -4 0 -6 7 -11 15 -11 9 0 20 -12 25 -26 6 -15 14 -22 22
-18 7 4 8 3 4 -5 -4 -6 0 -14 8 -17 9 -3 14 -10 11 -14 -3 -5 -1 -11 5 -15 6
-4 8 -10 5 -15 -6 -11 61 -70 80 -70 8 0 15 -4 15 -8 0 -8 28 -24 125 -74 43
-22 57 -42 19 -28 -81 31 -309 169 -377 229 -71 63 -37 16 48 -66 52 -50 80
-83 73 -86 -8 -3 -6 -6 5 -6 9 -1 17 -8 17 -16 0 -15 10 -19 41 -16 9 1 19 -8
23 -21 5 -19 8 -20 16 -8 5 8 10 10 10 4 0 -7 56 -40 125 -74 69 -35 124 -65
122 -67 -8 -7 -255 89 -267 105 -3 4 -23 15 -44 25 -29 14 -36 15 -28 4 7 -8
61 -38 120 -66 59 -29 114 -56 122 -62 82 -52 110 -71 110 -73 0 -2 -21 1 -47
5 -72 12 -93 9 -48 -6 l40 -13 -40 0 c-45 1 -85 -9 -85 -22 0 -13 105 -23 175
-17 71 7 190 -8 220 -27 11 -7 34 -18 52 -24 28 -9 31 -9 30 8 -1 11 -3 17 -6
15 -2 -3 -63 53 -135 123 -72 71 -176 161 -231 202 -55 40 -129 98 -165 129
-58 50 -142 121 -209 176 -29 24 -121 104 -173 152 -40 36 -47 62 -23 86 13
14 9 20 -35 60 -28 25 -50 47 -50 49 0 3 35 -13 77 -34 52 -25 79 -34 84 -27
4 7 12 8 18 5 6 -4 11 -5 11 -2 0 2 -34 26 -75 52 -41 26 -74 49 -72 51 4 3
64 -16 89 -28 26 -13 47 -11 28 2 -12 8 -9 9 10 4 14 -4 37 -8 53 -10 15 -1
30 -5 34 -8 10 -11 35 -8 28 3 -17 28 -160 82 -263 100 -37 6 -28 7 43 5 50
-1 100 -7 112 -13 25 -14 98 -18 130 -8 17 5 27 0 49 -28 l27 -34 18 21 c15
19 20 20 45 9 l29 -12 -23 19 c-12 11 -28 21 -35 24 -6 2 -9 8 -4 12 4 5 13 3
19 -3 7 -7 21 -12 31 -12 16 0 17 3 7 15 -10 12 -10 18 -1 29 10 11 8 15 -6
18 -14 3 -10 8 16 21 18 9 37 14 42 12 4 -3 11 0 14 6 4 6 32 9 67 8 54 -2 62
0 90 28 29 29 30 34 19 61 -7 16 -25 42 -40 56 l-28 27 -49 -58 c-27 -32 -69
-76 -93 -98 -25 -22 -3 7 47 64 93 104 121 150 42 69 l-42 -43 23 40 c13 22
32 46 42 54 17 12 18 22 12 82 -5 46 -3 69 3 69 6 0 13 -15 15 -32 4 -31 4
-31 6 7 2 38 3 38 16 -23 16 -72 57 -167 86 -198 18 -20 43 -84 33 -84 -3 0
-13 4 -23 10 -14 7 -25 2 -51 -25 -34 -35 -55 -44 -62 -25 -2 6 -13 3 -27 -7
-17 -11 -40 -16 -73 -14 -31 2 -48 -2 -48 -9 0 -8 14 -9 45 -4 31 4 45 3 45
-5 0 -12 -12 -18 -45 -23 -13 -2 -22 -14 -27 -33 -8 -37 -3 -43 20 -22 36 33
131 68 214 78 82 11 86 10 121 -12 20 -13 37 -28 37 -33 0 -13 -78 -117 -104
-138 -25 -21 -26 -20 45 -9 39 7 65 18 82 35 31 31 26 33 -13 6 -21 -15 -30
-17 -33 -8 -4 10 -6 10 -6 1 -1 -7 -5 -13 -11 -13 -21 0 -8 18 35 49 l45 33
20 -24 19 -23 2 80 c1 44 1 83 0 88 0 4 4 7 10 7 6 0 9 7 6 15 -4 8 1 46 9 85
8 39 12 75 9 81 -4 5 -1 9 6 9 7 0 9 -10 7 -24 -3 -14 -1 -31 3 -38 6 -8 9 1
9 25 0 20 4 37 10 37 5 0 7 -12 4 -27 -4 -23 4 -39 42 -85 25 -31 66 -67 90
-80 24 -12 44 -26 44 -30 0 -5 6 -8 14 -8 7 0 32 -18 54 -41 l41 -41 -2 74
c-1 40 4 111 12 158 8 47 14 99 15 117 1 17 4 29 9 26 4 -2 7 5 7 16 0 22 -19
30 -21 9 -1 -19 -17 33 -18 60 -1 15 3 21 11 16 8 -5 9 -2 5 9 -3 10 -4 17 -1
17 8 0 34 -27 34 -36 0 -18 54 -75 84 -89 18 -9 42 -24 53 -34 11 -11 61 -26
128 -39 61 -12 121 -24 134 -28 17 -5 22 -3 20 5 -3 7 -9 13 -14 13 -14 1 -54
88 -54 120 -1 15 -5 29 -10 32 -4 3 -16 27 -26 53 -22 59 -93 173 -107 173 -6
0 -5 -8 3 -17 11 -15 10 -14 -9 1 -23 20 -30 32 -12 21 18 -11 10 4 -15 30
-14 14 -30 25 -35 25 -5 0 -11 3 -13 8 -3 4 27 7 66 6 67 -1 138 18 123 33 -3
3 -17 -2 -31 -11 -14 -9 -34 -14 -45 -11 -21 7 -35 35 -17 35 7 0 23 3 37 6
22 4 21 3 -5 -10 -16 -8 -26 -15 -22 -15 16 -2 102 22 112 30 5 5 16 9 25 9
12 -1 11 -4 -4 -15 -11 -8 -17 -15 -14 -15 7 0 68 31 68 35 0 5 -72 -1 -105
-9 -25 -6 -24 -4 10 13 52 25 36 26 -43 1 -35 -11 -83 -19 -105 -19 -23 1 -33
3 -22 6 42 9 161 45 190 58 17 7 39 16 49 19 10 4 17 9 14 12 -3 2 -31 -5 -62
-16 -31 -12 -61 -20 -66 -18 -11 3 254 105 300 115 25 5 70 40 70 53 0 4 -19
4 -42 -1 -25 -4 -76 -3 -118 3 -128 17 -290 -8 -333 -53 -10 -11 -24 -19 -31
-19 -7 0 -21 -9 -31 -20 -10 -11 -25 -19 -33 -18 -9 2 -16 -6 -17 -20 -2 -31
-48 -72 -79 -72 -14 0 -27 -4 -30 -9 -3 -5 -15 -7 -26 -4 -21 5 -28 -11 -10
-22 9 -6 5 -104 -5 -113 -4 -5 -45 36 -46 46 -1 13 -9 15 -9 2 0 -9 -6 -8 -20
5 -22 20 -48 27 -63 18 -4 -3 0 -12 10 -20 10 -8 12 -11 4 -7 -11 5 -13 2 -8
-12 7 -23 16 -64 10 -46 -6 16 -23 15 -23 -2 0 -8 -7 -16 -15 -20 -9 -3 -15 0
-15 10 0 9 5 12 12 8 8 -5 9 0 5 17 -4 13 -7 36 -7 50 0 15 -7 29 -15 32 -11
5 -13 0 -8 -25 4 -22 3 -29 -5 -24 -7 4 -17 -11 -26 -41 -8 -26 -15 -40 -15
-29 -1 30 21 96 30 90 12 -7 11 3 -2 27 -9 17 -13 18 -26 8 -8 -7 -19 -23 -24
-36 -5 -13 -13 -23 -19 -23 -6 0 -8 6 -4 13 4 6 4 9 -1 5 -15 -14 -12 -72 6
-113 26 -60 39 -115 39 -163 0 -29 5 -45 15 -48 16 -6 21 -34 7 -34 -5 0 -8
-10 -8 -21 1 -12 -5 -24 -12 -26 -9 -4 -13 7 -13 34 1 86 -11 189 -24 203 -7
8 -15 27 -19 43 -3 15 -11 27 -17 27 -6 0 -8 -9 -4 -21 5 -13 3 -19 -3 -15
-11 6 -22 66 -12 66 3 0 12 -6 19 -12 10 -11 10 -7 1 15 -5 16 -17 39 -25 50
-19 28 -19 43 0 27 16 -13 20 -3 7 17 -4 7 -18 11 -30 8 -19 -3 -21 -1 -13 14
8 14 6 17 -11 16 -27 -2 -59 26 -44 38 7 5 2 7 -11 4 -13 -3 -26 -1 -29 4 -3
5 -11 9 -17 8 -7 -1 -23 -1 -37 0 -19 1 -21 4 -10 10 21 11 163 -12 228 -37
29 -11 54 -16 58 -11 7 11 -76 50 -90 42 -5 -3 -6 -1 -2 5 4 7 -14 13 -51 17
-58 6 -146 21 -193 33 -14 3 -31 6 -38 7 -7 0 -16 6 -20 12 -13 20 -84 46
-136 50 -27 1 -47 1 -45 -2 6 -5 45 -13 72 -14 10 -1 17 -9 17 -22 0 -13 -4
-18 -12 -13 -8 5 -9 1 -5 -12 6 -17 5 -17 -5 -2 -11 15 -14 15 -36 0 -18 -12
-28 -13 -41 -5 -14 9 -17 7 -17 -10 1 -14 -7 -23 -24 -28 -22 -6 -22 -7 -4 -8
50 -2 32 -45 -26 -62 -45 -14 -45 -14 -53 22 -6 23 -3 28 26 37 29 9 30 11 10
17 -23 7 -38 42 -20 48 11 3 -28 68 -46 76 -5 2 1 10 12 18 35 24 28 79 -14
120 -19 19 -35 38 -35 43 0 6 -4 10 -9 10 -5 0 -12 10 -14 23 l-4 22 -2 -22
c0 -13 -6 -23 -12 -23 -5 0 -7 -5 -3 -12 4 -6 0 -16 -9 -23 -15 -11 -14 -13 9
-24 18 -8 24 -17 20 -28 -5 -13 -4 -14 9 -3 12 10 19 10 27 2 7 -7 20 -12 31
-12 14 0 18 -6 15 -27 -2 -16 -6 -26 -10 -23 -4 3 -13 -2 -20 -12 -12 -15 -20
-13 -98 17 -47 19 -81 34 -76 34 5 1 3 8 -4 16 -11 13 -15 13 -21 3 -7 -10 -9
-10 -9 -1 0 7 -23 24 -51 38 -39 20 -50 31 -47 47 2 12 12 26 23 32 11 6 32
19 48 29 15 10 35 16 45 14 13 -4 11 -5 -5 -6 -15 -1 -23 -7 -22 -18 0 -11 3
-13 6 -5 2 6 9 10 14 7 12 -8 51 14 44 25 -3 5 3 14 13 19 14 7 25 6 40 -5 18
-12 22 -13 22 -1 0 7 16 32 36 56 29 33 39 39 50 30 11 -9 14 -6 14 21 0 19 6
41 14 49 13 14 56 132 56 153 0 4 9 17 19 27 11 11 25 39 32 63 6 24 14 37 16
30 4 -10 10 -7 20 8 10 14 16 49 18 93 1 40 5 83 10 97 4 14 -11 -3 -34 -36
-62 -93 -66 -94 -79 -22 -6 34 -32 105 -57 158 -45 94 -66 178 -57 225 6 33
-1 31 -30 -7z m-38 -455 c-13 -65 -28 -124 -34 -132 -6 -7 -12 -29 -13 -49 -1
-19 -13 -51 -28 -71 -14 -21 -25 -43 -25 -51 0 -7 -3 -11 -6 -8 -3 3 2 40 10
82 9 42 18 89 19 104 2 15 7 34 11 40 4 7 9 30 11 50 1 20 8 50 14 65 6 16 11
31 11 35 0 4 5 24 11 46 10 35 12 37 27 23 15 -15 14 -26 -8 -134z m-201 -718
c24 -168 12 -319 -39 -465 -10 -30 -21 -70 -25 -87 -10 -50 -27 -40 -24 15 3
41 1 47 -17 50 -12 2 -41 -4 -65 -12 -31 -11 -39 -11 -27 -2 16 12 16 14 -7
26 -13 7 -36 10 -52 7 -34 -6 -223 17 -304 38 -59 16 -75 18 -68 10 13 -13
216 -55 292 -61 80 -6 87 -8 73 -23 -24 -23 -283 -21 -385 3 -163 38 -330 111
-478 210 -71 46 -91 65 -87 78 3 11 -8 37 -28 65 -18 27 -33 50 -34 53 -4 21
-36 80 -43 80 -5 0 -11 6 -14 14 -5 12 -1 13 24 4 16 -5 32 -14 35 -19 3 -5
13 -9 23 -9 24 0 251 -100 436 -192 130 -65 199 -97 350 -163 66 -29 213 -73
260 -79 47 -5 49 -5 30 10 -19 16 -19 16 10 9 92 -21 94 -20 111 21 9 22 23
89 31 149 15 106 10 228 -14 350 -5 26 -4 28 9 15 8 -8 20 -51 27 -95z m315
-315 c9 -106 15 -566 6 -525 -4 22 -13 57 -18 79 -11 40 -7 66 10 66 5 0 8 10
6 23 -2 14 -9 21 -20 21 -16 -2 -16 1 -2 28 9 17 11 27 5 24 -15 -10 -14 17 1
32 10 10 10 14 1 20 -7 4 -14 17 -16 27 -1 11 -5 25 -8 30 -10 16 -3 126 11
183 7 29 14 51 16 50 1 -2 5 -28 8 -58z m842 -273 c-2 -35 1 -55 7 -54 12 2
31 -74 20 -82 -13 -9 -11 -50 2 -55 8 -3 10 4 7 21 -4 19 -2 24 8 18 8 -5 10
-20 7 -41 -4 -23 -2 -33 6 -31 7 1 12 -9 13 -23 2 -45 4 -51 14 -45 6 3 10 4
10 1 0 -2 3 -13 6 -23 5 -15 4 -15 -5 -3 -7 10 -11 11 -11 3 0 -20 -18 -15
-64 17 -38 26 -85 94 -73 106 2 2 12 -14 22 -36 10 -22 22 -40 27 -40 5 0 7 4
3 9 -3 5 -1 12 5 16 11 7 9 80 -3 91 -4 4 -7 16 -7 26 0 10 -4 18 -10 18 -5 0
-10 12 -10 26 0 14 -5 34 -10 45 -6 10 -7 19 -2 19 5 0 13 24 16 53 10 69 26
42 22 -36z m-2438 2 c17 -8 32 -16 32 -19 0 -3 14 -5 31 -6 52 -2 113 -27 149
-61 22 -21 38 -29 44 -23 6 6 -3 21 -25 41 -33 31 -33 31 -4 14 17 -10 40 -25
52 -33 12 -7 27 -11 33 -7 5 3 10 2 10 -4 0 -5 9 -12 20 -16 11 -3 50 -34 87
-68 38 -34 83 -73 101 -85 18 -13 30 -27 27 -32 -3 -4 7 -15 21 -25 14 -9 23
-22 21 -30 -3 -7 1 -12 11 -11 9 0 17 -6 17 -15 0 -8 8 -23 18 -33 9 -10 17
-21 17 -26 0 -5 7 -16 16 -25 10 -9 18 -27 19 -39 4 -37 20 -60 82 -116 42
-39 49 -48 25 -34 -45 26 -183 137 -273 220 -131 122 -280 239 -431 338 -97
63 -148 103 -148 114 0 10 3 13 8 6 4 -6 22 -17 40 -25z m1207 -29 c-7 -11 11
-29 78 -84 26 -21 45 -41 43 -45 -2 -3 9 -7 25 -8 17 -1 27 2 24 7 -10 16 7
12 27 -7 25 -23 22 -36 -7 -31 -34 7 -32 -7 4 -22 16 -6 42 -25 57 -42 31 -33
19 -30 -33 8 -32 24 -61 34 -32 11 16 -13 67 -85 88 -125 12 -22 11 -23 -11
-16 -12 4 -34 8 -48 9 -14 1 -31 3 -38 3 -17 2 -41 61 -40 98 1 16 -3 40 -7
54 -7 22 -6 23 8 11 9 -7 15 -17 12 -21 -2 -4 2 -16 10 -26 13 -18 14 -18 11
6 -4 42 -21 64 -45 57 -13 -3 -21 0 -21 8 0 7 -23 34 -52 61 l-52 49 -13 -50
c-46 -176 -78 -273 -94 -290 -28 -29 -25 -8 20 130 21 66 44 151 50 189 14 78
18 89 32 80 5 -3 7 -9 4 -14z m-1184 -68 c31 -25 85 -61 120 -79 40 -21 109
-76 183 -146 66 -62 122 -111 124 -109 2 2 16 -10 31 -27 15 -17 31 -31 35
-31 4 0 19 -12 34 -27 29 -30 52 -47 125 -94 65 -43 59 -48 -10 -8 -179 100
-343 220 -509 371 -201 182 -269 259 -133 150z m436 -17 c55 -29 63 -35 156
-111 37 -30 67 -58 67 -62 0 -4 18 -25 40 -47 21 -22 39 -45 40 -52 0 -7 11
-33 26 -58 24 -44 53 -126 68 -190 4 -18 -8 -3 -31 40 -76 142 -218 320 -344
431 -85 75 -84 74 -77 74 4 0 29 -11 55 -25z m613 -381 c0 -3 -5 -15 -12 -27
-10 -20 -10 -21 5 -8 15 12 17 11 17 -13 0 -19 -9 -32 -31 -45 -31 -19 -51
-47 -96 -131 -13 -25 -29 -52 -35 -61 -16 -23 -3 -49 26 -49 36 0 66 43 66 97
0 58 31 115 76 142 33 20 39 20 46 7 5 -8 15 -13 23 -10 9 4 15 0 15 -10 0 -9
3 -15 8 -13 11 3 14 -11 7 -42 -6 -27 -59 -91 -76 -91 -7 0 -25 -41 -20 -48 1
-1 -4 -8 -11 -15 -23 -22 -84 -35 -127 -27 -23 4 -43 4 -46 1 -2 -4 -11 -48
-20 -99 -8 -51 -18 -99 -21 -107 -10 -26 -27 -16 -21 13 51 267 61 308 87 333
31 30 81 116 101 172 7 20 19 37 26 37 7 0 13 -3 13 -6z m-1014 -339 c16 -4
47 -9 69 -11 22 -3 47 -8 55 -11 8 -3 18 -5 22 -5 4 1 30 -12 57 -28 26 -17
51 -30 54 -30 3 0 36 -19 74 -42 74 -45 165 -126 157 -139 -3 -5 1 -19 8 -31
7 -13 11 -27 9 -33 -1 -5 3 -5 10 2 10 10 9 16 -2 30 -7 10 -9 14 -4 10 6 -5
16 11 25 39 9 26 22 50 30 52 8 3 10 0 5 -8 -6 -9 -4 -11 5 -5 7 4 16 2 21 -6
8 -12 11 -12 19 1 8 12 10 11 10 -8 0 -44 -33 -154 -50 -164 -16 -10 -16 -12
1 -29 11 -11 19 -27 19 -36 -1 -16 -2 -15 -12 2 -6 11 -22 31 -34 44 -13 13
-21 28 -17 35 3 6 3 8 -2 4 -4 -4 -14 -3 -22 3 -10 9 -13 6 -13 -15 0 -14 -2
-26 -5 -26 -5 0 -71 37 -105 59 -45 29 -64 39 -165 90 -56 28 -106 51 -112 51
-7 0 -73 20 -147 45 -75 25 -145 45 -155 45 -11 0 -23 5 -27 11 -9 15 145 2
165 -14 8 -7 22 -11 33 -9 10 2 18 -2 18 -9 0 -8 13 -10 41 -6 35 5 41 2 49
-16 5 -12 9 -16 9 -9 2 25 102 -10 145 -49 10 -10 35 -26 55 -35 20 -9 54 -31
76 -48 21 -17 35 -24 31 -16 -5 8 3 4 19 -10 l27 -25 -7 25 c-9 27 -9 32 0 70
5 22 -1 30 -53 63 -32 20 -63 37 -68 37 -5 0 6 -9 24 -20 17 -11 32 -24 32
-30 0 -5 6 -10 13 -10 6 0 20 -7 29 -14 14 -10 15 -16 5 -30 -11 -15 -19 -13
-92 25 -44 23 -86 46 -93 52 -35 28 -363 124 -487 142 -47 7 -48 8 -22 16 16
4 40 4 55 -2 14 -6 28 -6 31 -1 3 5 13 9 21 9 8 1 33 2 55 3 66 3 283 -60 362
-107 24 -14 47 -23 50 -19 10 9 -132 73 -243 108 -57 18 -104 37 -104 41 0 5
4 6 8 3 5 -3 22 -8 38 -11z m1117 -106 c12 -12 17 -19 11 -16 -7 4 -18 0 -25
-9 -10 -13 -10 -17 2 -24 21 -14 -66 -100 -101 -100 -49 0 -52 11 -19 80 17
36 36 68 42 72 19 12 37 9 37 -5 0 -8 7 -14 16 -14 10 0 14 7 11 19 -7 23 -1
23 26 -3z m-1480 -36 c15 -7 27 -11 27 -8 0 3 24 -7 52 -22 29 -15 59 -28 67
-30 42 -6 60 -15 66 -33 3 -11 13 -20 21 -20 8 0 14 -5 14 -11 0 -6 9 -8 20
-4 11 3 20 2 20 -2 0 -5 20 -19 45 -31 50 -24 58 -42 20 -42 -33 0 -302 136
-344 174 -32 29 -47 17 -16 -13 17 -15 35 -26 40 -24 6 2 39 -15 73 -37 34
-23 92 -54 127 -71 36 -16 65 -32 65 -35 0 -3 -5 -2 -11 1 -5 4 -23 2 -39 -5
-22 -9 -34 -9 -57 3 -47 25 -195 126 -233 160 -39 35 -69 74 -37 48 22 -18 34
-7 16 15 -12 15 -11 16 11 9 14 -4 37 -14 53 -22z m140 12 c20 -3 37 -10 37
-15 0 -5 7 -6 17 -3 11 4 14 3 9 -6 -5 -8 0 -10 17 -7 16 3 29 -2 38 -15 7
-10 16 -14 19 -9 5 9 60 -1 100 -17 8 -4 23 -7 33 -8 9 -1 26 -10 36 -19 9 -9
32 -16 49 -16 18 0 32 -5 32 -12 0 -6 3 -8 7 -5 6 7 205 -93 233 -118 8 -7 30
-20 48 -29 20 -10 32 -24 32 -36 0 -21 -10 -26 -26 -11 -24 24 -470 219 -667
292 -43 16 -86 33 -95 39 -18 11 -19 11 81 -5z m1038 -343 c21 -79 72 -181
126 -252 109 -144 376 -422 463 -482 44 -31 -45 12 -125 59 -92 55 -318 274
-339 328 -5 14 3 10 23 -12 48 -53 46 -38 -4 27 -29 37 -39 57 -28 53 17 -7
17 -6 1 17 -74 105 -150 289 -147 356 2 27 2 27 6 4 2 -14 13 -58 24 -98z"/>
<path d="M7867 4517 c-8 -28 12 -123 20 -99 9 24 19 11 19 -22 -1 -34 -1 -34
-21 -17 -11 10 -31 24 -45 31 -19 10 -15 2 20 -40 24 -29 45 -63 45 -75 1 -24
29 -68 38 -59 3 3 -1 22 -10 41 -10 25 -13 55 -9 97 7 87 8 88 27 93 10 3 15
11 13 18 -3 7 2 15 10 18 12 5 16 -1 17 -26 1 -18 3 -24 6 -14 8 29 26 19 21
-12 -2 -17 -1 -28 4 -25 4 3 5 -10 3 -28 -3 -18 -2 -26 1 -18 15 33 48 72 68
80 16 7 17 9 4 9 -9 1 -20 -3 -23 -9 -9 -15 -25 -12 -25 4 0 7 -12 25 -26 39
-21 21 -30 24 -48 16 -12 -6 -30 -23 -41 -39 -11 -16 -27 -31 -36 -33 -14 -4
-15 1 -9 28 4 18 11 39 16 46 6 12 5 12 -8 1 -14 -11 -17 -10 -20 5 -3 13 -6
11 -11 -10z"/>
<path d="M8215 4463 c-11 -3 -30 -14 -42 -26 -22 -19 -23 -19 -23 -2 0 17 -2
16 -25 -5 -14 -13 -25 -33 -25 -44 0 -19 -1 -19 -13 -1 -15 20 -34 5 -21 -17
5 -8 2 -9 -9 -5 -28 11 -89 -68 -100 -129 -5 -27 -1 -37 33 -67 21 -20 45 -46
54 -58 12 -17 28 -23 69 -27 30 -2 63 0 72 6 15 8 10 12 -31 26 -27 9 -65 27
-85 40 -19 13 -53 31 -74 40 -41 17 -44 33 -4 18 18 -7 32 -4 54 9 17 10 39
23 50 28 18 9 16 10 -10 10 -16 0 -47 -6 -68 -13 -21 -8 -37 -10 -35 -5 2 5
41 35 88 66 54 38 87 67 91 83 5 17 7 19 8 7 1 -10 5 -16 10 -12 16 9 73 85
64 84 -4 -1 -17 -3 -28 -6z"/>
<path d="M7877 4280 c-10 -14 -13 -38 -10 -75 3 -35 0 -55 -6 -55 -6 0 -11
-20 -11 -45 0 -25 -4 -45 -8 -45 -5 0 -15 -16 -22 -35 -8 -20 -20 -41 -27 -47
-7 -6 -13 -21 -13 -34 0 -13 -4 -24 -8 -24 -9 0 -7 -129 3 -233 3 -38 15 -84
26 -103 10 -19 16 -34 13 -34 -4 0 -2 -6 3 -12 6 -7 13 -31 16 -53 l6 -40 -26
52 c-14 29 -28 51 -32 49 -3 -2 -7 10 -7 27 -1 18 -7 59 -13 92 -6 33 -14 88
-17 123 -7 66 -17 80 -24 35 -7 -43 -4 -194 3 -233 5 -24 5 -29 -1 -15 -23 50
-33 98 -27 128 l6 32 -17 -29 c-11 -20 -14 -40 -9 -72 11 -74 97 -214 132
-214 12 0 17 -13 14 -32 0 -5 4 -7 11 -5 17 3 23 -34 6 -44 -10 -7 -9 -9 4 -9
9 0 24 -3 34 -7 12 -4 15 -3 10 6 -4 6 -7 84 -7 171 1 98 -2 160 -8 160 -5 0
-11 -17 -13 -37 -3 -38 -3 -38 -8 9 -3 25 -2 44 3 41 4 -2 7 2 7 9 0 9 3 9 10
-2 8 -12 10 -10 10 8 0 13 -4 20 -10 17 -6 -4 -10 8 -11 27 l-1 33 -8 -30 c-5
-20 -8 10 -9 84 -1 110 0 114 18 97 14 -13 20 -39 26 -134 5 -64 9 -165 9
-225 0 -124 15 -121 24 6 3 52 8 73 12 57 3 -14 2 -52 -3 -85 -4 -33 -10 -69
-11 -81 -2 -11 -10 -34 -18 -50 -20 -41 -13 -56 18 -43 30 11 54 33 54 49 0 6
4 9 8 6 4 -2 8 3 9 12 2 34 14 76 29 101 11 19 14 21 11 6 -3 -11 -8 -27 -11
-36 -6 -13 -2 -16 19 -12 27 6 54 39 73 88 15 42 25 172 13 179 -14 9 -23 98
-13 126 8 21 11 12 17 -49 5 -55 10 -70 17 -57 6 11 6 28 -1 48 -6 17 -11 44
-11 60 0 31 -22 62 -35 50 -5 -4 -5 1 -1 12 11 31 -4 79 -36 116 -17 19 -27
28 -23 20 5 -8 5 -12 1 -9 -4 4 -17 26 -29 50 -13 27 -30 45 -42 47 -19 3 -19
2 -2 -11 9 -8 17 -24 17 -35 0 -46 -17 -27 -44 49 -16 43 -30 79 -33 79 -2 0
-2 -9 2 -20 5 -15 3 -18 -9 -14 -22 8 -26 29 -11 58 16 31 12 34 -8 6z"/>
<path d="M8498 3956 c-9 -13 -19 -34 -20 -47 -5 -28 -37 -90 -38 -71 0 22 -19
13 -26 -13 -3 -14 -9 -25 -14 -25 -4 0 -15 -16 -26 -35 -10 -19 -23 -35 -27
-35 -5 0 -2 11 7 25 9 13 16 29 16 35 0 6 12 28 26 50 15 22 24 44 19 48 -4 4
-14 -3 -22 -15 -9 -13 -20 -23 -26 -23 -16 0 -97 -88 -97 -105 0 -7 -6 -20
-12 -27 -17 -18 -35 -56 -43 -93 -4 -16 -12 -37 -19 -45 -19 -22 -28 -78 -13
-83 9 -3 9 -7 0 -18 -7 -7 -13 -20 -12 -28 0 -11 3 -10 9 4 7 16 9 12 10 -20
1 -22 5 -49 10 -60 8 -19 9 -19 9 2 1 16 6 20 21 16 16 -4 20 0 20 21 0 17 4
25 11 21 6 -4 7 -19 4 -35 -4 -16 -1 -37 7 -49 17 -28 4 -37 -26 -17 -38 24
-51 19 -19 -8 25 -21 26 -26 15 -51 -14 -30 -7 -49 14 -41 8 3 14 1 14 -4 0
-6 13 -10 29 -10 25 0 28 3 24 23 -3 14 -2 18 4 10 5 -7 13 -9 20 -5 18 12 82
100 76 106 -3 3 -1 11 4 18 6 7 15 28 21 46 17 49 -5 39 -30 -15 -12 -25 -24
-41 -26 -35 -2 6 1 20 7 31 17 30 14 46 -4 31 -8 -7 -15 -23 -15 -36 0 -12 -5
-26 -10 -29 -6 -4 -8 -11 -4 -16 3 -5 10 -7 15 -4 14 9 11 0 -12 -39 -26 -44
-35 -47 -14 -5 9 17 14 33 11 36 -3 3 -8 -2 -12 -11 -3 -9 -10 -16 -14 -16 -5
0 -2 26 6 58 8 31 19 82 23 112 10 64 48 197 62 219 7 11 8 4 3 -24 -4 -22 -8
-47 -9 -55 -1 -8 -7 -28 -14 -44 -6 -16 -10 -30 -8 -32 6 -6 57 43 57 55 0 6
7 11 15 11 8 0 15 7 15 15 0 8 5 15 10 15 24 0 59 56 61 95 l2 40 6 -40 c4
-27 9 -36 15 -27 10 17 -2 102 -15 102 -5 0 -9 10 -9 23 0 18 -2 19 -10 7 -7
-11 -10 -2 -10 32 0 41 -2 46 -20 41 -19 -5 -19 -4 -5 31 17 41 8 47 -17 12z"/>
<path d="M8820 3865 c-19 -19 -40 -35 -47 -35 -7 0 -13 -4 -13 -10 0 -5 -6
-10 -13 -10 -13 0 -131 -82 -141 -98 -3 -5 6 -7 19 -4 33 6 31 -2 -10 -68 -41
-64 -47 -57 -8 9 18 32 21 42 9 32 -36 -30 -88 -158 -102 -256 -5 -27 -9 -53
-10 -57 -1 -5 -2 -13 -3 -19 0 -5 -6 -7 -12 -3 -8 4 -9 0 -4 -15 3 -12 3 -20
-2 -19 -11 4 -83 -67 -83 -81 0 -6 5 -11 11 -11 5 0 7 5 4 10 -3 6 -1 10 5 10
6 0 21 11 33 25 24 27 43 23 49 -10 4 -24 20 -45 31 -38 4 2 7 -1 7 -7 0 -7 8
-9 19 -5 11 3 22 2 25 -3 3 -5 0 -9 -7 -9 -12 -1 -129 -43 -135 -49 -2 -1 0
-10 6 -19 8 -15 10 -15 15 -2 6 16 66 31 115 28 37 -3 42 6 10 19 -15 5 -17 9
-7 9 8 1 28 14 44 31 15 16 32 27 36 24 4 -2 11 1 15 7 5 8 3 9 -6 4 -8 -5
-11 -4 -6 3 4 6 12 9 19 6 7 -2 26 12 42 33 17 21 41 48 54 60 13 13 19 23 14
23 -15 0 -4 45 16 67 20 22 33 61 20 65 -16 6 13 90 33 96 20 5 20 6 1 95 -4
17 -6 43 -5 57 2 23 1 23 -7 5 -14 -30 -14 49 0 98 6 22 9 41 7 43 -3 2 -20
-12 -38 -31z"/>
<path d="M8075 2333 c-145 -33 -221 -37 -252 -11 -10 8 -13 6 -12 -8 0 -11 4
-28 9 -39 8 -18 9 -18 9 -2 1 13 19 3 72 -43 39 -34 74 -59 77 -56 3 4 -3 13
-14 22 -18 15 -17 15 11 9 43 -10 57 -23 45 -46 -6 -10 -16 -17 -23 -15 -6 1
-9 1 -4 -1 4 -3 7 -11 7 -18 0 -8 5 -17 12 -21 6 -4 9 -3 6 2 -4 5 0 23 7 39
10 23 14 25 14 11 1 -14 4 -17 12 -9 12 12 -8 53 -27 53 -7 0 -22 9 -35 20
-21 17 -22 19 -5 20 15 0 16 3 6 15 -15 18 -7 19 23 4 22 -12 22 -12 3 10 -19
21 -19 21 6 19 15 -1 24 -7 21 -14 -2 -7 1 -15 7 -19 6 -4 11 -1 9 6 -3 28 1
39 16 39 10 0 15 -10 16 -27 0 -28 0 -28 17 7 9 19 23 41 30 48 6 7 12 15 12
18 0 5 0 5 -75 -13z"/>
<path d="M8565 2149 c-163 -47 -361 -75 -393 -55 -7 4 -12 4 -11 -1 4 -22 -3
-33 -20 -33 -10 0 -22 -7 -25 -16 -5 -14 -9 -14 -24 -3 -14 11 -15 11 -5 0 6
-7 9 -20 6 -29 -4 -10 -1 -13 8 -10 8 3 22 -7 31 -21 10 -14 18 -20 18 -13 0
6 4 12 10 12 5 0 7 -14 4 -32 l-5 -33 15 25 c8 14 18 45 21 70 10 73 12 75 41
55 14 -9 28 -14 31 -11 3 3 15 0 26 -6 16 -8 19 -8 14 4 -4 11 3 15 29 16 19
1 34 -3 34 -7 0 -5 -10 -7 -22 -3 -17 4 -20 2 -15 -12 4 -10 1 -27 -7 -38 -13
-19 -14 -19 -27 -1 -8 10 -28 26 -45 35 l-31 17 5 -24 c2 -13 11 -30 20 -37
13 -11 15 -10 9 5 -9 25 15 21 42 -7 l22 -24 -25 -6 c-27 -7 -56 1 -56 15 0 5
-5 9 -12 9 -7 0 -5 -6 4 -17 29 -33 31 -90 7 -156 -16 -43 -19 -62 -11 -65 7
-2 12 -8 12 -14 0 -6 -6 -6 -15 2 -8 6 -20 8 -27 4 -10 -6 -10 -4 0 9 8 9 12
22 9 29 -4 8 -6 7 -6 -4 -1 -21 -12 -23 -29 -6 -16 16 -15 -3 2 -27 7 -11 17
-36 20 -55 5 -26 4 -31 -3 -20 -17 24 -13 6 11 -46 24 -52 25 -56 27 -80 0 -9
6 -12 13 -8 7 4 8 3 4 -5 -4 -6 -2 -18 4 -26 10 -12 10 -15 -2 -15 -8 0 -27
27 -42 61 -38 86 -146 246 -209 309 -58 59 -130 120 -142 120 -4 0 11 -15 33
-32 23 -18 41 -38 41 -44 1 -7 8 -14 16 -18 8 -3 15 -13 15 -23 0 -10 20 -40
45 -67 25 -26 45 -53 45 -60 0 -6 12 -25 28 -41 26 -30 41 -53 68 -104 7 -13
17 -27 23 -30 6 -4 12 -16 14 -28 3 -23 40 -82 81 -128 31 -36 34 -23 6 23
-26 42 -26 62 0 29 11 -14 20 -30 20 -35 0 -5 7 -15 15 -22 12 -10 15 -10 15
3 0 8 -5 17 -10 19 -6 2 -14 33 -18 70 -5 37 -5 65 0 62 4 -3 8 2 8 11 0 9 -4
13 -10 10 -6 -4 -10 7 -10 25 0 17 -7 38 -15 47 -16 16 -16 16 7 153 l13 75 6
-55 6 -55 2 50 c1 28 6 70 10 95 8 44 9 44 10 9 0 -20 4 -57 7 -83 9 -61 23
-41 25 34 l1 55 13 -35 c7 -19 14 -28 14 -19 1 20 24 31 46 23 23 -9 18 -27
-6 -21 -16 4 -19 2 -14 -11 39 -99 40 -107 39 -280 0 -111 3 -168 8 -157 6 9
7 23 4 31 -3 8 -1 14 5 14 5 0 13 -10 18 -22 7 -19 9 -17 14 18 4 21 9 53 12
69 l5 30 -15 -27 c-9 -16 -17 -28 -18 -28 -1 0 -2 14 -2 30 0 17 3 30 8 30 4
0 7 35 7 77 0 85 6 93 14 19 3 -27 8 -51 10 -54 9 -8 5 176 -4 208 -8 27 -7
31 6 26 20 -8 65 4 59 15 -6 8 56 30 64 22 3 -2 -1 -9 -7 -15 -21 -21 -13 -29
13 -12 14 9 23 20 20 24 -3 5 6 17 21 27 14 10 40 31 57 46 17 15 37 25 44 22
8 -2 12 -1 9 4 -7 11 16 21 41 17 10 -2 12 -1 5 1 -25 8 38 33 66 26 18 -4 23
-3 18 6 -4 6 -4 10 1 9 14 -4 93 31 93 42 0 13 6 14 -96 -16 -49 -14 -92 -30
-96 -37 -4 -6 -10 -8 -14 -5 -3 4 21 24 54 45 34 21 61 44 62 52 0 8 -6 11
-16 7 -9 -3 -20 -6 -25 -6 -6 0 -8 -4 -5 -8 2 -4 -7 -8 -22 -7 -28 0 -73 -28
-207 -131 -138 -106 -183 -120 -176 -54 1 12 0 12 -7 2 -7 -10 -11 -10 -22 2
-10 13 -9 17 11 25 18 6 25 5 27 -5 5 -19 6 -18 40 15 28 29 28 30 8 36 -12 4
-24 7 -28 6 -4 0 -38 -6 -77 -12 -93 -16 -116 -7 -67 26 33 22 184 98 196 98
3 0 16 11 29 24 26 25 23 26 -24 12z"/>
<path d="M9330 1915 c-7 -8 -9 -15 -5 -15 5 0 0 -9 -10 -20 -19 -21 -41 -28
-29 -8 4 7 3 8 -5 4 -6 -4 -8 -12 -5 -18 5 -7 2 -8 -5 -3 -7 4 -23 -3 -38 -16
-25 -24 -25 -24 -14 -2 6 12 19 27 29 32 10 6 12 11 4 11 -7 0 -23 -6 -35 -14
-12 -7 -44 -25 -71 -41 -37 -21 -45 -30 -35 -37 11 -8 10 -9 -3 -4 -10 3 -37
-2 -60 -11 -24 -8 -53 -15 -65 -14 -31 1 -29 -13 5 -28 76 -35 170 -103 202
-148 19 -26 38 -49 42 -51 4 -2 8 -10 8 -18 0 -9 -5 -12 -12 -8 -7 5 -8 3 -4
-5 5 -7 15 -10 24 -6 8 3 18 2 21 -2 4 -4 19 -19 36 -33 16 -14 3 4 -28 40
-58 66 -75 99 -34 64 l22 -19 -20 25 c-39 47 -66 90 -57 90 4 0 12 -4 18 -9 5
-4 43 -21 84 -37 41 -16 77 -31 80 -34 3 -3 18 -11 34 -18 48 -21 15 11 -42
40 -198 103 -225 121 -198 131 9 4 16 3 16 -1 0 -4 9 -13 19 -19 16 -10 18 -9
14 8 -7 24 15 25 34 2 8 -10 12 -12 8 -5 -4 8 4 14 24 18 17 4 31 10 31 15 0
5 7 9 15 9 8 0 15 5 15 10 0 15 -26 12 -122 -14 -49 -13 -88 -20 -88 -17 0 9
72 45 83 43 5 -2 6 2 3 7 -3 5 13 20 36 34 54 32 121 90 93 80 -18 -6 -18 -5
-6 10 7 9 11 17 8 17 -2 0 -10 -7 -17 -15z"/>
<path d="M8939 1891 c-13 -10 -35 -22 -49 -26 -24 -7 -24 -7 -8 11 16 18 15
19 -23 18 -22 -1 -68 -13 -102 -27 -34 -14 -71 -28 -82 -32 -16 -6 -12 -10 23
-17 24 -5 42 -12 39 -14 -2 -2 -28 1 -56 7 -29 6 -55 8 -58 5 -3 -3 -18 1 -34
9 -36 19 -45 19 -29 0 7 -8 19 -15 26 -15 8 0 14 -5 14 -11 0 -5 4 -8 8 -5 14
8 35 -63 23 -77 -6 -8 -6 -18 -1 -27 8 -12 10 -9 10 10 0 20 2 22 10 10 15
-23 12 -40 -7 -41 -14 0 -13 -2 5 -9 12 -5 22 -14 22 -20 0 -6 -5 -8 -10 -5
-11 7 -4 -39 9 -60 3 -5 6 -13 7 -17 1 -5 3 -10 4 -13 1 -3 3 -8 5 -12 6 -22
18 -51 31 -76 7 -16 14 -32 14 -37 0 -7 63 -106 76 -119 2 -2 4 9 4 25 0 19
-3 25 -9 16 -5 -9 -19 13 -40 68 -18 45 -34 89 -35 98 -2 9 -8 18 -14 20 -7 2
-10 13 -6 27 4 16 -1 30 -15 44 -21 21 -28 37 -12 27 12 -8 9 6 -13 72 -10 29
-15 56 -12 59 3 4 6 -1 6 -9 0 -9 7 -21 15 -28 8 -7 12 -17 8 -23 -3 -6 -1 -7
5 -3 7 4 12 1 12 -6 0 -10 2 -10 9 1 7 10 18 4 47 -29 22 -23 43 -49 47 -56 4
-8 13 -14 19 -14 7 0 -2 15 -18 33 -49 51 -97 117 -91 123 10 11 46 -7 41 -20
-3 -7 2 -13 11 -13 23 0 18 25 -10 43 -31 20 -27 29 7 14 13 -7 33 -27 43 -46
10 -19 28 -45 39 -58 43 -47 66 -76 61 -76 -3 0 25 -29 61 -65 37 -36 70 -63
73 -59 3 3 -1 11 -9 17 -54 42 -180 215 -172 236 3 10 0 12 -12 8 -8 -3 -15
-3 -15 1 4 22 -5 32 -42 49 l-42 18 29 5 c16 3 29 10 29 17 0 6 4 15 9 20 5 5
6 3 2 -4 -9 -17 -1 -16 37 1 18 8 46 20 63 27 17 7 37 21 43 31 14 23 10 23
-20 -1z"/>
<path d="M8964 1816 c-17 -8 -51 -17 -75 -21 -75 -12 -75 -16 -1 -88 38 -36
67 -69 63 -73 -3 -4 0 -4 6 0 8 4 29 -10 54 -36 23 -24 37 -35 30 -26 -14 20
-6 42 12 31 7 -3 -9 16 -34 43 -26 28 -52 60 -58 73 -7 12 -27 29 -44 37 l-32
15 33 -7 c28 -5 39 -1 63 22 45 43 39 54 -17 30z"/>
<path d="M5970 1094 c73 -34 190 -64 259 -65 l56 -1 -60 -10 c-76 -11 -124 -6
-175 21 -42 22 -85 27 -94 12 -9 -14 146 -61 200 -61 27 0 63 4 81 9 17 5 35
5 39 1 16 -14 76 1 81 21 4 14 8 16 23 7 14 -9 22 -8 35 5 20 21 29 20 -160
22 -146 1 -227 15 -197 34 9 5 4 11 -14 20 -25 11 -26 10 -14 -4 19 -23 6 -29
-27 -12 -15 8 -41 17 -58 20 -20 4 -11 -3 25 -19z"/>
<path d="M6404 935 c-13 -10 -44 -14 -98 -15 -78 0 -170 -18 -233 -46 -17 -8
-34 -14 -38 -14 -4 0 -26 -13 -49 -28 -22 -15 -50 -31 -60 -35 -10 -4 -16 -10
-13 -14 4 -3 19 3 34 13 15 10 33 18 38 19 6 0 20 6 33 13 12 7 22 10 22 7 0
-3 17 3 38 14 42 21 89 33 145 36 l39 1 -27 -14 c-38 -20 -24 -25 21 -8 22 8
53 17 69 20 l30 6 -35 -31 c-19 -17 -75 -65 -125 -106 -130 -109 -128 -114 6
-11 42 32 82 58 89 58 8 0 25 10 39 23 l26 22 -20 -25 c-44 -53 -46 -63 -5
-21 24 24 39 35 35 25 -4 -11 -9 -51 -10 -91 -2 -39 -6 -77 -10 -85 -5 -8 -2
-7 7 2 9 8 23 60 33 115 10 55 24 109 31 120 19 26 18 36 -3 28 -16 -6 -16 -4
1 15 22 25 18 28 -10 7z"/>
<path d="M6660 858 c0 -7 26 -48 58 -90 31 -42 62 -85 69 -95 11 -17 13 -17
23 -1 7 11 19 15 36 12 19 -3 24 -1 18 8 -4 7 2 5 14 -6 12 -10 20 -22 17 -26
-8 -12 45 -59 60 -54 8 4 15 1 15 -5 0 -6 5 -10 12 -9 6 2 14 -8 17 -21 4 -13
15 -28 26 -32 11 -4 16 -8 10 -8 -5 -1 5 -10 23 -21 18 -11 37 -18 43 -15 5 4
9 1 9 -4 0 -6 3 -10 8 -9 4 2 21 -9 37 -24 16 -16 33 -28 37 -28 4 0 12 -10
19 -22 10 -18 9 -20 -5 -15 -46 19 -47 17 -8 -12 24 -18 46 -30 50 -27 3 3 1
6 -5 6 -6 0 -14 7 -17 16 -5 12 -2 15 11 10 20 -7 -51 62 -140 137 -43 36 -59
58 -68 90 -14 52 -58 109 -107 138 -20 11 -55 40 -76 63 -22 22 -33 33 -26 23
19 -25 8 -29 -33 -12 -20 8 -39 15 -42 16 -2 0 -20 6 -39 14 -43 18 -46 18
-46 3z"/>
</g>
</svg>
